# 3ds Max Wavefront OBJ Exporter v0.97b - (c)2007 guruware
# File Created: 18.02.2016 19:50:22

mtllib Low Poly.mtl

#
# object LowPoly
#

v  5.6539 5.4116 -5.0216
v  5.6539 -5.7690 -5.0216
v  -5.6539 -5.7690 -5.0216
v  -5.6539 5.4116 -5.0216
v  4.6539 -4.7862 2.9003
v  4.6539 4.4282 2.9003
v  -4.6539 4.4282 2.9003
v  -4.6539 -4.7862 2.9003
v  -5.6539 -16.2326 4.7445
v  -5.6539 -16.2326 -5.4395
v  5.6539 -16.2326 -5.4395
v  5.6539 -16.2326 4.7445
v  18.3546 -5.7690 4.3365
v  18.3546 -5.7690 -5.4395
v  18.3546 5.4116 -5.4394
v  18.3546 5.4116 4.3365
v  5.6539 16.2326 4.7445
v  5.6539 16.2327 -5.4394
v  -5.6539 16.2327 -5.4394
v  -5.6539 16.2326 4.7445
v  -18.3547 5.4116 4.3365
v  -18.3547 5.4116 -5.4394
v  -18.3547 -5.7690 -5.4395
v  -18.3547 -5.7690 4.3365
v  11.3392 5.4116 -5.0216
v  11.3392 -5.7690 -5.0216
v  -11.3392 -5.7690 -5.0216
v  -11.3392 5.4116 -5.0216
v  11.3402 -4.7690 2.9002
v  17.3566 -4.7690 2.9085
v  17.3566 4.4116 2.9085
v  11.3402 4.4116 2.9002
v  -11.3402 4.4116 2.9002
v  -17.3566 4.4116 2.9085
v  -17.3566 -4.7690 2.9085
v  -11.3402 -4.7690 2.9002
v  4.6539 15.2834 3.2803
v  -4.6539 15.2834 3.2803
v  -4.6539 -15.2849 3.2790
v  4.6539 -15.2849 3.2790
v  11.3392 -5.7690 -6.4482
v  19.3634 -5.7690 -6.4482
v  19.3634 -11.9248 -6.4482
v  11.3392 -17.2414 -6.4482
v  19.3634 11.9248 -6.4482
v  19.3634 5.4116 -6.4482
v  11.3392 5.4116 -6.4482
v  11.3392 17.2414 -6.4482
v  -11.3392 5.4116 -6.4482
v  -19.3634 5.4116 -6.4482
v  -19.3634 11.9248 -6.4482
v  -11.3392 17.2414 -6.4482
v  -19.3634 -11.9248 -6.4482
v  -19.3634 -5.7690 -6.4482
v  -11.3392 -5.7690 -6.4482
v  -11.3392 -17.2414 -6.4482
v  11.3392 5.4116 6.4482
v  19.3634 5.4116 6.4482
v  19.3634 11.9248 6.4482
v  11.3392 17.2414 6.4482
v  19.3634 -11.9248 6.4482
v  19.3634 -5.7690 6.4482
v  11.3392 -5.7690 6.4482
v  11.3392 -17.2414 6.4482
v  -11.3392 -5.7690 6.4482
v  -19.3634 -5.7690 6.4482
v  -19.3634 -11.9248 6.4482
v  -11.3392 -17.2414 6.4482
v  -19.3634 11.9248 6.4482
v  -19.3634 5.4116 6.4482
v  -11.3392 5.4116 6.4482
v  -11.3392 17.2414 6.4482
v  -5.6539 -5.7690 -6.4482
v  -5.6539 -17.2414 -6.4482
v  5.6539 -17.2414 -6.4482
v  5.6539 -5.7690 -6.4482
v  5.6539 5.4116 -6.4482
v  5.6539 17.2414 -6.4482
v  -5.6539 17.2414 -6.4482
v  -5.6539 5.4116 -6.4482
v  -5.6539 5.4116 6.4482
v  -5.6539 17.2414 6.4482
v  5.6539 17.2414 6.4482
v  5.6539 5.4116 6.4482
v  5.6539 -5.7690 6.4482
v  5.6539 -17.2414 6.4482
v  -5.6539 -17.2414 6.4482
v  -5.6539 -5.7690 6.4482
v  5.6539 -5.7690 4.3267
v  11.3392 -5.7690 4.3267
v  -5.6539 5.4116 4.3267
v  -11.3392 5.4116 4.3267
v  5.6539 5.4116 4.3267
v  11.3392 5.4116 4.3267
v  -5.6539 -5.7690 4.3267
v  -11.3392 -5.7690 4.3267
v  17.3546 4.4116 4.3351
v  17.3546 -4.7690 4.3351
v  11.3392 4.4116 4.3267
v  4.6539 4.4116 4.3267
v  4.6539 15.2334 4.7060
v  -4.6539 15.2334 4.7060
v  -4.6539 4.4116 4.3267
v  -11.3392 4.4116 4.3267
v  -17.3547 4.4116 4.3351
v  -17.3547 -4.7690 4.3351
v  -11.3392 -4.7690 4.3267
v  -4.6539 -4.7690 4.3267
v  -4.6539 -15.2334 4.7046
v  4.6539 -15.2334 4.7046
v  4.6539 -4.7690 4.3267
v  11.3392 -4.7690 4.3267
# 112 vertices

vn 0.0000 -0.0129 -0.9999
vn 0.0000 0.0133 -0.9999
vn 0.0000 0.0120 0.9999
vn 0.0000 -0.0117 0.9999
vn -0.0000 -0.0117 0.9999
vn -0.0000 0.0120 0.9999
vn 0.0000 -1.0000 -0.0000
vn 1.0000 0.0000 -0.0000
vn 0.0000 1.0000 0.0000
vn -1.0000 0.0000 -0.0000
vn -0.0297 0.0000 -0.9996
vn -0.0595 0.0000 -0.9982
vn 0.0297 0.0000 -0.9996
vn 0.0595 0.0000 -0.9982
vn -0.0007 0.0000 1.0000
vn -0.0014 0.0000 1.0000
vn 0.0007 0.0000 1.0000
vn 0.0014 0.0000 1.0000
vn 0.0000 0.0399 -0.9992
vn 0.0000 -0.0386 -0.9993
vn 0.0000 -0.0350 0.9994
vn 0.0000 0.0361 0.9994
vn 0.0000 0.0000 -1.0000
vn 0.0000 0.0000 1.0000
vn 0.5523 0.8336 -0.0000
vn 0.2884 0.9575 -0.0000
vn 0.0000 1.0000 -0.0000
vn 0.2884 -0.9575 -0.0000
vn 0.5523 -0.8336 -0.0000
vn -0.5523 -0.8336 -0.0000
vn -0.2884 -0.9575 -0.0000
vn -0.2884 0.9575 -0.0000
vn -0.5523 0.8336 -0.0000
vn 0.0176 -0.0368 0.9992
vn 0.0000 -0.0385 0.9993
vn -0.0176 -0.0368 0.9992
vn -0.0180 0.0380 0.9991
vn 0.0000 0.0399 0.9992
vn 0.0180 0.0380 0.9991
vn -1.0000 0.0000 -0.0014
vn -0.0012 -1.0000 -0.0058
vn 0.0000 -0.9994 -0.0350
vn 0.0012 -1.0000 -0.0058
vn 1.0000 0.0000 -0.0013
vn 0.0013 1.0000 -0.0060
vn 0.0000 0.9993 -0.0361
vn -0.0013 1.0000 -0.0060
# 47 vertex normals

vt 0.3571 0.5266 0.0000
vt 0.4731 0.5267 0.0000
vt 0.4731 0.6439 0.0000
vt 0.3571 0.6439 0.0000
vt 0.2182 0.5163 0.0000
vt 0.1226 0.5159 0.0000
vt 0.1231 0.4194 0.0000
vt 0.2186 0.4198 0.0000
vt 0.4199 0.1764 0.0000
vt 0.4199 0.0708 0.0000
vt 0.5372 0.0708 0.0000
vt 0.5372 0.1764 0.0000
vt 0.9457 0.8886 0.0000
vt 0.9457 0.9900 0.0000
vt 0.8298 0.9900 0.0000
vt 0.8298 0.8886 0.0000
vt 0.0100 0.1290 0.0000
vt 0.0100 0.0234 0.0000
vt 0.1273 0.0234 0.0000
vt 0.1273 0.1290 0.0000
vt 0.7336 0.1142 0.0000
vt 0.7336 0.2155 0.0000
vt 0.6176 0.2156 0.0000
vt 0.6176 0.1142 0.0000
vt 0.3571 0.4677 0.0000
vt 0.3571 0.3948 0.0000
vt 0.4731 0.3948 0.0000
vt 0.4731 0.4677 0.0000
vt 0.4731 0.7029 0.0000
vt 0.4731 0.7758 0.0000
vt 0.3571 0.7758 0.0000
vt 0.3571 0.7029 0.0000
vt 0.2177 0.5857 0.0000
vt 0.2175 0.6481 0.0000
vt 0.1223 0.6477 0.0000
vt 0.1225 0.5853 0.0000
vt 0.1235 0.3501 0.0000
vt 0.1238 0.2877 0.0000
vt 0.2190 0.2881 0.0000
vt 0.2187 0.3505 0.0000
vt 0.5817 0.5267 0.0000
vt 0.5817 0.6440 0.0000
vt 0.2448 0.6439 0.0000
vt 0.2448 0.5266 0.0000
vt 0.0100 0.5155 0.0000
vt 0.0104 0.4189 0.0000
vt 0.3276 0.4203 0.0000
vt 0.3272 0.5168 0.0000
vt 0.7906 0.6489 0.0000
vt 0.7906 0.5656 0.0000
vt 0.8545 0.5656 0.0000
vt 0.9096 0.6489 0.0000
vt 0.4132 0.1846 0.0000
vt 0.4808 0.1846 0.0000
vt 0.4808 0.2678 0.0000
vt 0.3581 0.2678 0.0000
vt 0.3527 0.1764 0.0000
vt 0.2695 0.1764 0.0000
vt 0.2695 0.1089 0.0000
vt 0.3527 0.0537 0.0000
vt 0.5451 0.1846 0.0000
vt 0.6089 0.1846 0.0000
vt 0.6089 0.2678 0.0000
vt 0.4899 0.2678 0.0000
vt 0.1327 0.1962 0.0000
vt 0.1327 0.2794 0.0000
vt 0.0651 0.2794 0.0000
vt 0.0100 0.1962 0.0000
vt 0.2057 0.2773 0.0000
vt 0.1418 0.2773 0.0000
vt 0.1418 0.1941 0.0000
vt 0.2608 0.1941 0.0000
vt 0.8684 0.1797 0.0000
vt 0.8684 0.2629 0.0000
vt 0.8046 0.2629 0.0000
vt 0.7494 0.1797 0.0000
vt 0.2814 0.1846 0.0000
vt 0.3490 0.1846 0.0000
vt 0.3490 0.2678 0.0000
vt 0.2263 0.2678 0.0000
vt 0.6089 0.3268 0.0000
vt 0.4899 0.3268 0.0000
vt 0.9096 0.7078 0.0000
vt 0.7906 0.7078 0.0000
vt 0.4808 0.3268 0.0000
vt 0.3581 0.3268 0.0000
vt 0.4117 0.0537 0.0000
vt 0.4117 0.1764 0.0000
vt 0.3490 0.3268 0.0000
vt 0.2263 0.3268 0.0000
vt 0.0100 0.1372 0.0000
vt 0.1327 0.1372 0.0000
vt 0.1418 0.1352 0.0000
vt 0.2608 0.1352 0.0000
vt 0.7494 0.1207 0.0000
vt 0.8684 0.1207 0.0000
vt 0.6796 0.8562 0.0000
vt 0.6796 0.9900 0.0000
vt 0.5798 0.9900 0.0000
vt 0.5798 0.8562 0.0000
vt 0.5208 0.9900 0.0000
vt 0.5208 0.8562 0.0000
vt 0.9225 0.1661 0.0000
vt 0.9225 0.0324 0.0000
vt 0.9900 0.0324 0.0000
vt 0.9900 0.1661 0.0000
vt 0.6094 0.0427 0.0000
vt 0.6094 0.1764 0.0000
vt 0.5455 0.1764 0.0000
vt 0.5455 0.0427 0.0000
vt 0.5124 0.8902 0.0000
vt 0.3787 0.8902 0.0000
vt 0.3787 0.8312 0.0000
vt 0.5124 0.8312 0.0000
vt 0.5124 0.9900 0.0000
vt 0.3787 0.9900 0.0000
vt 0.4817 0.6644 0.0000
vt 0.6154 0.6644 0.0000
vt 0.6154 0.7642 0.0000
vt 0.4817 0.7642 0.0000
vt 0.6154 0.8232 0.0000
vt 0.4817 0.8232 0.0000
vt 0.9060 0.6275 0.0000
vt 0.9060 0.4937 0.0000
vt 0.9698 0.4937 0.0000
vt 0.9698 0.6275 0.0000
vt 0.9859 0.7471 0.0000
vt 0.9859 0.8808 0.0000
vt 0.9183 0.8808 0.0000
vt 0.9183 0.7471 0.0000
vt 0.6154 0.4185 0.0000
vt 0.4817 0.4185 0.0000
vt 0.4817 0.3595 0.0000
vt 0.6154 0.3595 0.0000
vt 0.6154 0.5183 0.0000
vt 0.4817 0.5183 0.0000
vt 0.7660 0.2387 0.0000
vt 0.7070 0.2387 0.0000
vt 0.7070 0.2239 0.0000
vt 0.7660 0.2239 0.0000
vt 0.7846 0.4028 0.0000
vt 0.8931 0.3985 0.0000
vt 0.8931 0.4133 0.0000
vt 0.7742 0.4133 0.0000
vt 0.7846 0.2972 0.0000
vt 0.7742 0.2795 0.0000
vt 0.8931 0.3015 0.0000
vt 0.8931 0.2795 0.0000
vt 0.7070 0.3357 0.0000
vt 0.7660 0.3357 0.0000
vt 0.7660 0.3577 0.0000
vt 0.7070 0.3577 0.0000
vt 0.6238 0.3577 0.0000
vt 0.6343 0.3358 0.0000
vt 0.6343 0.2344 0.0000
vt 0.6238 0.2239 0.0000
vt 0.7910 0.7160 0.0000
vt 0.7910 0.7750 0.0000
vt 0.7762 0.7750 0.0000
vt 0.7762 0.7160 0.0000
vt 0.7360 0.3765 0.0000
vt 0.6238 0.3808 0.0000
vt 0.6238 0.3660 0.0000
vt 0.7465 0.3660 0.0000
vt 0.7360 0.4821 0.0000
vt 0.7465 0.4998 0.0000
vt 0.6238 0.4778 0.0000
vt 0.6238 0.4998 0.0000
vt 0.8880 0.7750 0.0000
vt 0.8880 0.7160 0.0000
vt 0.9100 0.7160 0.0000
vt 0.9100 0.7750 0.0000
vt 0.9100 0.8582 0.0000
vt 0.8881 0.8477 0.0000
vt 0.7867 0.8477 0.0000
vt 0.7762 0.8582 0.0000
vt 0.7603 0.7058 0.0000
vt 0.7603 0.6468 0.0000
vt 0.7823 0.6468 0.0000
vt 0.7823 0.7058 0.0000
vt 0.7994 0.8673 0.0000
vt 0.8214 0.8673 0.0000
vt 0.8214 0.9900 0.0000
vt 0.8037 0.9795 0.0000
vt 0.6981 0.9795 0.0000
vt 0.6876 0.9900 0.0000
vt 0.7024 0.8673 0.0000
vt 0.6876 0.8673 0.0000
vt 0.6633 0.6468 0.0000
vt 0.6633 0.7058 0.0000
vt 0.6485 0.7058 0.0000
vt 0.6485 0.6468 0.0000
vt 0.6590 0.5740 0.0000
vt 0.6485 0.5636 0.0000
vt 0.7604 0.5740 0.0000
vt 0.7823 0.5636 0.0000
vt 0.8978 0.4437 0.0000
vt 0.8388 0.4437 0.0000
vt 0.8388 0.4216 0.0000
vt 0.8978 0.4217 0.0000
vt 0.6485 0.7361 0.0000
vt 0.6485 0.7141 0.0000
vt 0.7675 0.7141 0.0000
vt 0.7570 0.7318 0.0000
vt 0.7570 0.8374 0.0000
vt 0.7675 0.8479 0.0000
vt 0.6485 0.8331 0.0000
vt 0.6485 0.8479 0.0000
vt 0.8388 0.5406 0.0000
vt 0.8978 0.5406 0.0000
vt 0.8978 0.5554 0.0000
vt 0.8388 0.5554 0.0000
vt 0.7661 0.5449 0.0000
vt 0.7556 0.5554 0.0000
vt 0.7661 0.4436 0.0000
vt 0.7556 0.4216 0.0000
vt 0.0883 0.6640 0.0000
vt 0.0246 0.7348 0.0000
vt 0.0100 0.7356 0.0000
vt 0.0875 0.6493 0.0000
vt 0.1347 0.7057 0.0000
vt 0.1416 0.6980 0.0000
vt 0.1863 0.7520 0.0000
vt 0.1855 0.7373 0.0000
vt 0.2613 0.6684 0.0000
vt 0.2606 0.6538 0.0000
vt 0.3332 0.7329 0.0000
vt 0.3478 0.7322 0.0000
vt 0.2581 0.8165 0.0000
vt 0.2727 0.8157 0.0000
vt 0.3097 0.8628 0.0000
vt 0.3166 0.8551 0.0000
vt 0.3561 0.9045 0.0000
vt 0.3707 0.9037 0.0000
vt 0.2925 0.9754 0.0000
vt 0.2933 0.9900 0.0000
vt 0.2461 0.9337 0.0000
vt 0.2391 0.9414 0.0000
vt 0.1944 0.8874 0.0000
vt 0.1952 0.9020 0.0000
vt 0.1219 0.9682 0.0000
vt 0.1227 0.9829 0.0000
vt 0.0501 0.9037 0.0000
vt 0.0354 0.9045 0.0000
vt 0.1226 0.8229 0.0000
vt 0.1080 0.8237 0.0000
vt 0.0710 0.7765 0.0000
vt 0.0641 0.7842 0.0000
vt 0.6248 0.6035 0.0000
vt 0.6256 0.5083 0.0000
vt 0.6404 0.5084 0.0000
vt 0.6396 0.6036 0.0000
vt 0.6243 0.6659 0.0000
vt 0.6391 0.6660 0.0000
vt 0.6238 0.7352 0.0000
vt 0.6386 0.7353 0.0000
vt 0.6256 0.8479 0.0000
vt 0.6404 0.8476 0.0000
vt 0.3228 0.3504 0.0000
vt 0.2263 0.3495 0.0000
vt 0.2264 0.3348 0.0000
vt 0.3229 0.3357 0.0000
vt 0.4354 0.3515 0.0000
vt 0.4352 0.3367 0.0000
vt 0.5048 0.3505 0.0000
vt 0.5046 0.3357 0.0000
vt 0.5672 0.3495 0.0000
vt 0.5669 0.3348 0.0000
vt 0.9266 0.3536 0.0000
vt 0.9266 0.2584 0.0000
vt 0.9414 0.2584 0.0000
vt 0.9414 0.3536 0.0000
vt 0.9266 0.4160 0.0000
vt 0.9414 0.4160 0.0000
vt 0.9266 0.4854 0.0000
vt 0.9414 0.4854 0.0000
vt 0.0248 0.8707 0.0000
vt 0.0248 0.9797 0.0000
vt 0.0100 0.9793 0.0000
vt 0.0100 0.8707 0.0000
vt 0.0248 0.7742 0.0000
vt 0.0100 0.7742 0.0000
vt 0.9187 0.3043 0.0000
vt 0.9176 0.4133 0.0000
vt 0.9029 0.4131 0.0000
vt 0.9039 0.3045 0.0000
vt 0.9176 0.2350 0.0000
vt 0.9029 0.2352 0.0000
vt 0.9166 0.1726 0.0000
vt 0.9019 0.1728 0.0000
# 290 texture coords

g LowPoly
usemtl wire_184228153
s 1
f 1/1/1 2/2/2 3/3/2 4/4/1 
f 5/5/3 6/6/4 7/7/5 8/8/6 
f 9/9/7 10/10/7 11/11/7 12/12/7 
f 13/13/8 14/14/8 15/15/8 16/16/8 
f 17/17/9 18/18/9 19/19/9 20/20/9 
f 21/21/10 22/22/10 23/23/10 24/24/10 
f 25/25/11 15/26/12 14/27/12 26/28/11 
f 27/29/13 23/30/14 22/31/14 28/32/13 
f 29/33/15 30/34/16 31/35/16 32/36/15 
f 33/37/17 34/38/18 35/39/18 36/40/17 
f 2/2/2 11/41/19 10/42/19 3/3/2 
f 4/4/1 19/43/20 18/44/20 1/1/1 
f 6/6/4 37/45/21 38/46/21 7/7/5 
f 8/8/6 39/47/22 40/48/22 5/5/3 
f 41/49/23 42/50/23 43/51/23 44/52/23 
f 45/53/23 46/54/23 47/55/23 48/56/23 
f 49/57/23 50/58/23 51/59/23 52/60/23 
f 53/61/23 54/62/23 55/63/23 56/64/23 
f 57/65/24 58/66/24 59/67/24 60/68/24 
f 61/69/24 62/70/24 63/71/24 64/72/24 
f 65/73/24 66/74/24 67/75/24 68/76/24 
f 69/77/24 70/78/24 71/79/24 72/80/24 
f 4/4/1 3/3/2 27/29/13 28/32/13 
f 2/2/2 1/1/1 25/25/11 26/28/11 
f 8/8/6 7/7/5 33/37/17 36/40/17 
f 6/6/4 5/5/3 29/33/15 32/36/15 
f 73/81/23 74/82/23 56/64/23 55/63/23 
f 75/83/23 76/84/23 41/49/23 44/52/23 
f 77/85/23 78/86/23 48/56/23 47/55/23 
f 79/87/23 80/88/23 49/57/23 52/60/23 
f 81/89/24 82/90/24 72/80/24 71/79/24 
f 83/91/24 84/92/24 57/65/24 60/68/24 
f 85/93/24 86/94/24 64/72/24 63/71/24 
f 87/95/24 88/96/24 65/73/24 68/76/24 
f 59/97/25 45/98/25 48/99/26 60/100/26 
f 60/100/26 48/99/26 78/101/27 83/102/27 
f 45/103/8 59/104/8 58/105/8 46/106/8 
f 61/107/8 43/108/8 42/109/8 62/110/8 
f 44/111/28 64/112/28 86/113/7 75/114/7 
f 64/112/28 44/111/28 43/115/29 61/116/29 
f 67/117/30 53/118/30 56/119/31 68/120/31 
f 68/120/31 56/119/31 74/121/7 87/122/7 
f 53/123/10 67/124/10 66/125/10 54/126/10 
f 69/127/10 51/128/10 50/129/10 70/130/10 
f 52/131/32 72/132/32 82/133/9 79/134/9 
f 72/132/32 52/131/32 51/135/33 69/136/33 
f 2/137/9 26/138/9 41/139/9 76/140/9 
f 11/141/10 2/142/10 76/143/10 75/144/10 
f 12/145/10 11/141/10 75/144/10 86/146/10 
f 89/147/10 12/145/10 86/146/10 85/148/10 
f 90/149/9 89/150/9 85/151/9 63/152/9 
f 90/149/9 63/152/9 62/153/9 13/154/9 
f 14/155/9 13/154/9 62/153/9 42/156/9 
f 26/138/9 14/155/9 42/156/9 41/139/9 
f 4/157/7 28/158/7 49/159/7 80/160/7 
f 19/161/8 4/162/8 80/163/8 79/164/8 
f 20/165/8 19/161/8 79/164/8 82/166/8 
f 91/167/8 20/165/8 82/166/8 81/168/8 
f 92/169/7 91/170/7 81/171/7 71/172/7 
f 92/169/7 71/172/7 70/173/7 21/174/7 
f 22/175/7 21/174/7 70/173/7 50/176/7 
f 28/158/7 22/175/7 50/176/7 49/159/7 
f 93/177/7 94/178/7 57/179/7 84/180/7 
f 93/181/10 84/182/10 83/183/10 17/184/10 
f 18/185/10 17/184/10 83/183/10 78/186/10 
f 1/187/10 18/185/10 78/186/10 77/188/10 
f 25/189/7 1/190/7 77/191/7 47/192/7 
f 15/193/7 25/189/7 47/192/7 46/194/7 
f 16/195/7 15/193/7 46/194/7 58/196/7 
f 94/178/7 16/195/7 58/196/7 57/179/7 
f 95/197/27 96/198/27 65/199/27 88/200/27 
f 95/201/8 88/202/8 87/203/8 9/204/8 
f 10/205/8 9/204/8 87/203/8 74/206/8 
f 3/207/8 10/205/8 74/206/8 73/208/8 
f 27/209/9 3/210/9 73/211/9 55/212/9 
f 23/213/9 27/209/9 55/212/9 54/214/9 
f 24/215/27 23/213/9 54/214/9 66/216/27 
f 96/198/27 24/215/27 66/216/27 65/199/27 
f 97/217/16 98/218/16 13/219/16 16/220/16 
f 99/221/16 97/217/16 16/220/16 94/222/16 
f 100/223/24 99/221/24 94/222/24 93/224/24 
f 101/225/34 100/223/34 93/224/34 17/226/34 
f 102/227/35 101/225/35 17/226/35 20/228/35 
f 103/229/36 102/227/36 20/228/36 91/230/36 
f 104/231/24 103/229/24 91/230/24 92/232/24 
f 105/233/18 104/231/18 92/232/18 21/234/18 
f 106/235/18 105/233/18 21/234/18 24/236/18 
f 107/237/18 106/235/18 24/236/18 96/238/18 
f 108/239/24 107/237/24 96/238/24 95/240/24 
f 109/241/37 108/239/37 95/240/37 9/242/37 
f 110/243/38 109/241/38 9/242/38 12/244/38 
f 111/245/39 110/243/39 12/244/39 89/246/39 
f 112/247/24 111/245/24 89/246/24 90/248/24 
f 98/218/16 112/247/16 90/248/16 13/219/16 
f 31/249/40 30/250/40 98/251/40 97/252/40 
f 32/253/7 31/249/7 97/252/7 99/254/7 
f 6/255/41 32/253/41 99/254/41 100/256/41 
f 37/257/10 6/255/10 100/256/10 101/258/10 
f 38/259/42 37/260/42 101/261/42 102/262/42 
f 7/263/8 38/259/8 102/262/8 103/264/8 
f 33/265/43 7/263/43 103/264/43 104/266/43 
f 34/267/7 33/265/7 104/266/7 105/268/7 
f 35/269/44 34/270/44 105/271/44 106/272/44 
f 36/273/27 35/269/27 106/272/27 107/274/27 
f 8/275/45 36/273/45 107/274/45 108/276/45 
f 39/277/8 8/278/8 108/279/8 109/280/8 
f 40/281/46 39/277/46 109/280/46 110/282/46 
f 5/283/10 40/284/10 110/285/10 111/286/10 
f 29/287/47 5/283/47 111/286/47 112/288/47 
f 30/289/9 29/287/9 112/288/9 98/290/9 
# 110 polygons

