# Wavefront Obj file
# 
# verts: 62 uv-s: 146
mtllib LowPoly_01.mtl

g Box883

v -355.924591 -297.435211 78.859299
v 241.286407 -297.435211 78.859299
v 241.286407 -297.435211 337.025513
v -355.924591 -297.435211 337.025513
v 181.739700 254.322006 277.478790
v 181.739700 254.322006 78.859299
v -296.377899 254.322006 78.859299
v -296.377899 254.322006 277.478790
v 355.924591 -297.435211 78.859299
v 355.924591 -23.969500 78.859299
v 355.924591 -23.969500 253.559006
v 355.924591 -297.435211 253.559006
v 241.286407 -297.435211 50.188400
v 241.286407 -23.969500 50.188400
v 338.906097 -23.969500 50.188400
v 338.906097 -297.435211 50.188400
v -355.924591 -23.969500 78.859299
v -355.924591 -23.969500 50.188400
v -355.924591 -297.435211 50.188400
v 241.286407 -23.969500 78.859299
v 241.286407 -23.969500 337.025513
v -355.924591 -297.435211 -337.025513
v -355.924591 -23.969500 -337.025513
v 241.286407 -23.969500 -337.025513
v 241.286407 -297.435211 -337.025513
v 181.739700 254.322006 50.188400
v -296.377899 254.322006 50.188400
v -355.924591 -23.969500 337.025513
v 181.739700 254.322006 -277.478790
v -296.377899 254.322006 -277.478790
v 221.725906 -23.969500 317.464996
v -336.364105 -23.969500 317.464996
v 221.725906 -23.969500 78.859299
v 221.725906 -23.969500 50.188400
v 221.725906 -23.969500 -317.464996
v -336.364105 -23.969500 -317.464996
v -336.364105 -23.969500 50.188400
v -336.364105 -23.969500 78.859299
v 221.725906 254.322006 317.464996
v -336.364105 254.322006 317.464996
v 221.725906 254.322006 78.859299
v 221.725906 254.322006 50.188400
v 221.725906 254.322006 -317.464996
v -336.364105 254.322006 -317.464996
v -336.364105 254.322006 50.188400
v -336.364105 254.322006 78.859299
v -336.364105 297.435211 317.464996
v 221.725906 297.435211 317.464996
v 181.739700 297.435211 277.478790
v -296.377899 297.435211 277.478790
v 221.725906 297.435211 78.859299
v 181.739700 297.435211 78.859299
v 221.725906 297.435211 50.188400
v 181.739700 297.435211 50.188400
v 221.725906 297.435211 -317.464996
v 181.739700 297.435211 -277.478790
v -336.364105 297.435211 -317.464996
v -296.377899 297.435211 -277.478790
v -336.364105 297.435211 50.188400
v -296.377899 297.435211 50.188400
v -336.364105 297.435211 78.859299
v -296.377899 297.435211 78.859299
# 62 positions

vt 0.136944 0.639974
vt 0.136944 0.933631
vt 0.010000 0.933631
vt 0.010000 0.639974
vt 0.603451 0.395605
vt 0.505787 0.395605
vt 0.505787 0.630702
vt 0.603451 0.630702
vt 0.010000 0.186147
vt 0.146002 0.186147
vt 0.146002 0.099264
vt 0.010000 0.099264
vt 0.484401 0.688792
vt 0.349934 0.688792
vt 0.349934 0.640791
vt 0.484401 0.640791
vt 0.912547 0.542485
vt 0.778080 0.542485
vt 0.778080 0.528387
vt 0.912547 0.528387
vt 0.151042 0.933631
vt 0.151042 0.981632
vt 0.136944 0.990000
vt 0.640333 0.639974
vt 0.554431 0.639974
vt 0.554431 0.696343
vt 0.681375 0.696343
vt 0.366643 0.346706
vt 0.366643 0.209698
vt 0.309208 0.209698
vt 0.309208 0.346706
vt 0.990000 0.990000
vt 0.855533 0.990000
vt 0.855533 0.696343
vt 0.990000 0.696343
vt 0.151042 0.639974
vt 0.491690 0.395605
vt 0.491690 0.630702
vt 0.010000 0.200406
vt 0.146002 0.200406
vt 0.912547 0.669429
vt 0.778080 0.669429
vt 0.051042 0.990000
vt 0.540333 0.648342
vt 0.540333 0.696343
vt 0.341440 0.639974
vt 0.341440 0.933631
vt 0.778080 0.337988
vt 0.912547 0.337988
vt 0.330571 0.395605
vt 0.330571 0.630702
vt 0.172436 0.412334
vt 0.037969 0.412334
vt 0.037969 0.602733
vt 0.172436 0.602733
vt 0.681375 0.990000
vt 0.671757 0.705961
vt 0.671757 0.980382
vt 0.554431 0.705961
vt 0.540333 0.705961
vt 0.349934 0.696343
vt 0.359553 0.705961
vt 0.349934 0.990000
vt 0.359553 0.980382
vt 0.540333 0.990000
vt 0.540333 0.980382
vt 0.554431 0.990000
vt 0.554431 0.980382
vt 0.367146 0.972788
vt 0.641567 0.972788
vt 0.641567 0.835948
vt 0.367146 0.835948
vt 0.689869 0.677796
vt 0.689869 0.795122
vt 0.826708 0.795122
vt 0.826708 0.677796
vt 0.689869 0.809220
vt 0.826708 0.809220
vt 0.689869 0.990000
vt 0.826708 0.990000
vt 0.375752 0.152092
vt 0.650173 0.152092
vt 0.650173 0.288932
vt 0.375752 0.288932
vt 0.770455 0.318498
vt 0.770455 0.499279
vt 0.633615 0.499279
vt 0.633615 0.318498
vt 0.770455 0.513376
vt 0.633615 0.513376
vt 0.770455 0.630702
vt 0.633615 0.630702
vt 0.010000 0.346706
vt 0.010000 0.209698
vt 0.322204 0.630702
vt 0.322204 0.356282
vt 0.302542 0.375944
vt 0.302542 0.611040
vt 0.204878 0.356282
vt 0.204878 0.375944
vt 0.190780 0.356282
vt 0.190780 0.375944
vt 0.010000 0.356282
vt 0.029662 0.375944
vt 0.010000 0.630702
vt 0.029662 0.611040
vt 0.190780 0.630702
vt 0.190780 0.611040
vt 0.204878 0.630702
vt 0.204878 0.611040
vt 0.641567 0.814749
vt 0.367146 0.814749
vt 0.847908 0.795122
vt 0.847908 0.677796
vt 0.847908 0.809220
vt 0.847908 0.990000
vt 0.650173 0.310131
vt 0.375752 0.310131
vt 0.612415 0.499279
vt 0.612415 0.318498
vt 0.612415 0.513376
vt 0.612415 0.630702
vt 0.711068 0.075035
vt 0.711068 0.310131
vt 0.689869 0.310131
vt 0.689869 0.075035
vt 0.778080 0.056615
vt 0.778080 0.154279
vt 0.799279 0.154279
vt 0.799279 0.056615
vt 0.778080 0.168377
vt 0.799279 0.168377
vt 0.778080 0.329495
vt 0.799279 0.329495
vt 0.680948 0.075035
vt 0.680948 0.310131
vt 0.659748 0.310131
vt 0.659748 0.075035
vt 0.829400 0.056615
vt 0.829400 0.217733
vt 0.808200 0.217733
vt 0.808200 0.056615
vt 0.829400 0.231831
vt 0.808200 0.231831
vt 0.829400 0.329495
vt 0.808200 0.329495
# 146 texture coordinates

vn 0.000000 -1.000000 0.000000
vn 0.000000 1.000000 0.000000
vn 0.964344 0.000000 -0.264652
vn 1.000000 0.000000 0.000000
vn 0.000000 0.000000 -1.000000
vn -1.000000 0.000000 0.000000
vn 0.588602 0.000000 0.808423
vn 0.859919 0.000000 -0.510431
vn 0.000000 0.000000 1.000000
# 9 normals

usemtl default
f 1/1/1 2/2/1 3/3/1 4/4/1
f 5/5/2 6/6/2 7/7/2 8/8/2
f 9/9/3 10/10/3 11/11/4 12/12/4
f 13/13/5 14/14/5 15/15/5 16/16/5
f 1/17/6 17/18/6 18/19/6 19/20/6
f 13/21/1 16/22/1 9/23/1 2/2/1
f 11/24/2 10/25/2 20/26/2 21/27/2
f 12/28/7 11/29/7 21/30/7 3/31/7
f 22/32/5 23/33/5 24/34/5 25/35/5
f 19/36/1 13/21/1 2/2/1 1/1/1
f 26/37/2 27/38/2 7/7/2 6/6/2
f 16/39/8 15/40/8 10/10/3 9/9/3
f 4/41/6 28/42/6 17/18/6 1/17/6
f 12/43/1 3/3/1 2/2/1 9/23/1
f 10/25/2 15/44/2 14/45/2 20/26/2
f 13/21/1 19/36/1 22/46/1 25/47/1
f 19/20/6 18/19/6 23/48/6 22/49/6
f 27/38/2 26/37/2 29/50/2 30/51/2
f 14/52/4 13/53/4 25/54/4 24/55/4
f 28/56/2 21/27/2 31/57/2 32/58/2
f 21/27/2 20/26/2 33/59/2 31/57/2
f 20/26/2 14/45/2 34/60/2 33/59/2
f 14/45/2 24/61/2 35/62/2 34/60/2
f 24/61/2 23/63/2 36/64/2 35/62/2
f 23/63/2 18/65/2 37/66/2 36/64/2
f 18/65/2 17/67/2 38/68/2 37/66/2
f 17/67/2 28/56/2 32/58/2 38/68/2
f 32/69/9 31/70/9 39/71/9 40/72/9
f 31/73/4 33/74/4 41/75/4 39/76/4
f 33/74/4 34/77/4 42/78/4 41/75/4
f 34/77/4 35/79/4 43/80/4 42/78/4
f 35/81/5 36/82/5 44/83/5 43/84/5
f 36/85/6 37/86/6 45/87/6 44/88/6
f 37/86/6 38/89/6 46/90/6 45/87/6
f 38/89/6 32/91/6 40/92/6 46/90/6
f 4/93/9 3/31/9 21/30/9 28/94/9
f 47/95/2 48/96/2 49/97/2 50/98/2
f 48/96/2 51/99/2 52/100/2 49/97/2
f 51/99/2 53/101/2 54/102/2 52/100/2
f 53/101/2 55/103/2 56/104/2 54/102/2
f 55/103/2 57/105/2 58/106/2 56/104/2
f 57/105/2 59/107/2 60/108/2 58/106/2
f 59/107/2 61/109/2 62/110/2 60/108/2
f 61/109/2 47/95/2 50/98/2 62/110/2
f 40/72/9 39/71/9 48/111/9 47/112/9
f 39/76/4 41/75/4 51/113/4 48/114/4
f 41/75/4 42/78/4 53/115/4 51/113/4
f 42/78/4 43/80/4 55/116/4 53/115/4
f 43/84/5 44/83/5 57/117/5 55/118/5
f 44/88/6 45/87/6 59/119/6 57/120/6
f 45/87/6 46/90/6 61/121/6 59/119/6
f 46/90/6 40/92/6 47/122/6 61/121/6
f 5/123/5 8/124/5 50/125/5 49/126/5
f 8/127/4 7/128/4 62/129/4 50/130/4
f 7/128/4 27/131/4 60/132/4 62/129/4
f 27/131/4 30/133/4 58/134/4 60/132/4
f 30/135/9 29/136/9 56/137/9 58/138/9
f 29/139/6 26/140/6 54/141/6 56/142/6
f 26/140/6 6/143/6 52/144/6 54/141/6
f 6/143/6 5/145/6 49/146/6 52/144/6

# 60 faces
