# 3ds Max Wavefront OBJ Exporter v0.97b - (c)2007 guruware
# File Created: 11.04.2016 21:34:55

mtllib main roof_unwrapped.mtl

#
# object unwrapped_roof
#

v  -452.1086 51.4222 -154.1592
v  -452.1086 33.4532 -227.8379
v  432.0910 33.4532 -227.8379
v  432.0910 51.4222 -154.1592
v  -452.1086 116.8100 986.8575
v  -452.1086 116.8100 1061.6248
v  432.0910 116.8100 1061.6248
v  432.0910 116.8100 986.8575
v  -452.1086 51.4222 1061.6248
v  432.0912 51.4222 1061.6248
v  720.3682 116.8100 1061.6248
v  720.3682 51.4222 1061.6248
v  720.3682 51.4222 986.8574
v  720.3682 116.8100 986.8574
v  432.0912 116.8100 -1061.6248
v  432.0910 33.4532 -1061.6248
v  -452.1086 33.4532 -1061.6248
v  -452.1086 116.8100 -1061.6248
v  -789.4628 116.8100 -227.8379
v  -789.4628 33.4532 -227.8379
v  -789.4628 51.4222 -154.1592
v  -789.4628 116.8100 -154.1592
v  -452.1086 -116.8099 986.8575
v  -452.1086 -116.8099 1061.6248
v  -710.3713 -116.8099 1061.6248
v  -710.3713 -116.8099 986.8574
v  646.2142 116.8100 1061.6248
v  646.2142 116.8100 986.8574
v  -452.1086 116.8100 -154.1592
v  -452.1086 116.8100 -227.8379
v  -710.3713 116.8100 -227.8379
v  -710.3713 116.8100 -154.1592
v  646.2142 51.4222 1061.6248
v  -710.3713 116.8100 1061.6248
v  -710.3713 51.4222 1061.6248
v  -710.3713 33.4532 -227.8379
v  432.0912 116.8100 -227.8379
v  713.9271 116.8100 -227.8379
v  713.9271 33.4532 -227.8379
v  713.9271 -116.8099 -154.1592
v  713.9271 -116.8099 -227.8379
v  788.0811 -116.8099 -227.8379
v  788.0811 -116.8099 -154.1592
v  788.0811 116.8100 -227.8379
v  788.0811 33.4532 -227.8379
v  -789.4628 -116.8099 1061.6248
v  -789.4628 -116.8099 986.8574
v  -789.4628 116.8100 1061.6248
v  -789.4628 51.4222 1061.6248
v  432.0912 -116.8099 986.8575
v  432.0912 -116.8099 1061.6248
v  432.0910 116.8100 791.2357
v  -452.1086 116.8100 791.2357
v  720.8721 51.4222 650.3876
v  720.8721 116.8100 650.3876
v  -789.4628 116.8100 986.8574
v  -789.4628 51.4222 986.8574
v  646.2142 -116.8099 986.8574
v  646.2142 -116.8099 1061.6248
v  646.7180 116.8100 650.3876
v  -710.3713 116.8100 986.8574
v  720.3682 -116.8099 986.8574
v  720.3682 -116.8099 1061.6248
v  -789.4628 -116.8099 791.2356
v  -710.3713 -116.8099 791.2356
v  432.0912 51.4222 281.3039
v  -452.1086 51.4222 281.7654
v  -789.4628 51.4222 281.3039
v  -789.4628 116.8100 281.3039
v  713.9271 51.4222 -154.1592
v  715.3088 51.4222 281.3039
v  -710.3713 116.8100 281.3039
v  -452.1086 116.8100 281.3039
v  789.4628 -116.8099 281.3039
v  715.3088 -116.8099 281.3039
v  432.0912 116.8100 -154.1592
v  788.0811 116.8100 -154.1592
v  788.0811 51.4222 -154.1592
v  713.9271 116.8100 -154.1592
v  -710.3713 -116.8099 -154.1592
v  -789.4628 -116.8099 -154.1592
v  -789.4628 -116.8099 -227.8379
v  -710.3713 -116.8099 -227.8379
v  -789.4628 51.4222 791.2356
v  -710.3713 51.4222 -154.1592
v  -710.3713 51.4222 281.7654
v  -710.3713 -116.8099 281.3039
v  789.4628 51.4222 281.3039
v  432.0912 116.8100 281.3040
v  789.4628 116.8100 281.3039
v  715.3088 116.8100 281.3039
v  -789.4628 -116.8099 281.3039
v  -789.4628 51.4222 556.9194
v  -789.4628 116.8100 556.9194
v  -710.3713 116.8100 556.9194
v  -452.1086 116.8100 556.9194
v  788.9656 -116.8099 556.9194
v  714.8115 -116.8099 556.9194
v  788.9656 51.4222 556.9194
v  432.0910 116.8100 556.9194
v  788.9656 116.8100 556.9194
v  714.8115 116.8100 556.9194
v  -710.3713 -116.8099 556.9194
v  -789.4628 -116.8099 556.9194
v  -789.4628 116.8100 791.2356
v  720.8721 -116.8099 650.3876
v  646.7180 -116.8099 650.3876
v  -710.3713 116.8100 791.2356
# 108 vertices

vn 0.0000 -0.9968 0.0795
vn 0.0000 -0.9715 0.2369
vn 0.0000 1.0000 -0.0000
vn 0.0000 0.0000 1.0000
vn 1.0000 0.0000 -0.0000
vn 1.0000 0.0000 0.0007
vn 0.0000 0.0000 -1.0000
vn -1.0000 0.0000 -0.0000
vn 0.0000 -1.0000 -0.0000
vn -1.0000 -0.0000 -0.0000
vn 1.0000 -0.0000 -0.0000
vn 0.9506 0.0000 0.3103
vn 1.0000 0.0000 -0.0016
vn 1.0000 0.0000 -0.0032
vn 1.0000 0.0000 -0.0007
vn -1.0000 0.0000 0.0032
vn 1.0000 0.0000 0.0018
vn 0.9506 0.0000 0.3105
vn 0.8083 0.0000 0.5888
vn 1.0000 0.0000 0.0015
vn -0.0002 0.0014 -1.0000
# 21 vertex normals

vt 0.7024 0.4921 0.0000
vt 0.6790 0.4926 0.0000
vt 0.6782 0.2223 0.0000
vt 0.7016 0.2223 0.0000
vt 0.6395 0.6085 0.0000
vt 0.6624 0.6085 0.0000
vt 0.6624 0.8802 0.0000
vt 0.6395 0.8802 0.0000
vt 0.8472 0.2267 0.0000
vt 0.8673 0.2267 0.0000
vt 0.8673 0.4984 0.0000
vt 0.8472 0.4984 0.0000
vt 0.8472 0.5869 0.0000
vt 0.8673 0.5869 0.0000
vt 0.8673 0.6099 0.0000
vt 0.8472 0.6099 0.0000
vt 0.3818 0.1876 0.0000
vt 0.4074 0.1876 0.0000
vt 0.4074 0.4593 0.0000
vt 0.3818 0.4593 0.0000
vt 0.3336 0.4608 0.0000
vt 0.3080 0.4608 0.0000
vt 0.3135 0.4381 0.0000
vt 0.3336 0.4381 0.0000
vt 0.0330 0.1137 0.0000
vt 0.0100 0.1137 0.0000
vt 0.0100 0.0343 0.0000
vt 0.0330 0.0343 0.0000
vt 0.6624 0.9460 0.0000
vt 0.6395 0.9460 0.0000
vt 0.2888 0.6085 0.0000
vt 0.2662 0.6085 0.0000
vt 0.2662 0.5291 0.0000
vt 0.2888 0.5291 0.0000
vt 0.8673 0.5642 0.0000
vt 0.8472 0.5642 0.0000
vt 0.8472 0.1473 0.0000
vt 0.8673 0.1473 0.0000
vt 0.5910 0.0356 0.0000
vt 0.5910 0.0612 0.0000
vt 0.5116 0.0612 0.0000
vt 0.5116 0.0356 0.0000
vt 0.3700 0.2042 0.0000
vt 0.3443 0.2042 0.0000
vt 0.3443 0.1176 0.0000
vt 0.3700 0.1176 0.0000
vt 0.4231 0.4936 0.0000
vt 0.4222 0.2223 0.0000
vt 0.8472 0.0356 0.0000
vt 0.8472 0.0612 0.0000
vt 0.0100 0.8802 0.0000
vt 0.0100 0.6085 0.0000
vt 0.2662 0.8802 0.0000
vt 0.3700 0.4604 0.0000
vt 0.3443 0.4604 0.0000
vt 0.3836 0.4719 0.0000
vt 0.4062 0.4719 0.0000
vt 0.4062 0.4947 0.0000
vt 0.3836 0.4947 0.0000
vt 0.6624 0.9688 0.0000
vt 0.6395 0.9688 0.0000
vt 0.3443 0.0948 0.0000
vt 0.3700 0.0948 0.0000
vt 0.0100 0.0100 0.0000
vt 0.0330 0.0100 0.0000
vt 0.2662 0.5048 0.0000
vt 0.2888 0.5048 0.0000
vt 0.8472 0.1230 0.0000
vt 0.8673 0.1230 0.0000
vt 0.4873 0.0612 0.0000
vt 0.4873 0.0356 0.0000
vt 0.0330 0.3854 0.0000
vt 0.0100 0.3854 0.0000
vt 0.5794 0.8802 0.0000
vt 0.5794 0.6085 0.0000
vt 0.8673 0.7133 0.0000
vt 0.8472 0.7133 0.0000
vt 0.3336 0.0875 0.0000
vt 0.3135 0.0875 0.0000
vt 0.3135 0.0646 0.0000
vt 0.3336 0.0646 0.0000
vt 0.0330 0.4512 0.0000
vt 0.0100 0.4512 0.0000
vt 0.5361 0.9461 0.0000
vt 0.6395 0.5291 0.0000
vt 0.6624 0.5291 0.0000
vt 0.0330 0.4739 0.0000
vt 0.0100 0.4739 0.0000
vt 0.5361 0.9689 0.0000
vt 0.0931 0.0100 0.0000
vt 0.0931 0.0343 0.0000
vt 0.6395 0.5048 0.0000
vt 0.6624 0.5048 0.0000
vt 0.8365 0.2180 0.0000
vt 0.8360 0.4944 0.0000
vt 0.3135 0.3043 0.0000
vt 0.3336 0.3043 0.0000
vt 0.7018 0.1365 0.0000
vt 0.8337 0.1282 0.0000
vt 0.4227 0.5291 0.0000
vt 0.4227 0.6085 0.0000
vt 0.2498 0.4952 0.0000
vt 0.2498 0.4724 0.0000
vt 0.4227 0.5048 0.0000
vt 0.2889 0.8802 0.0000
vt 0.8472 0.9673 0.0000
vt 0.8673 0.9673 0.0000
vt 0.8728 0.9900 0.0000
vt 0.8472 0.9900 0.0000
vt 0.2889 0.9668 0.0000
vt 0.2662 0.9668 0.0000
vt 0.2889 0.9896 0.0000
vt 0.2662 0.9896 0.0000
vt 0.3836 0.0343 0.0000
vt 0.3836 0.0100 0.0000
vt 0.4062 0.0100 0.0000
vt 0.4062 0.0343 0.0000
vt 0.2619 0.0875 0.0000
vt 0.2619 0.0646 0.0000
vt 0.3135 0.1476 0.0000
vt 0.2619 0.1476 0.0000
vt 0.2619 0.4608 0.0000
vt 0.2619 0.4381 0.0000
vt 0.5116 0.1073 0.0000
vt 0.4873 0.1073 0.0000
vt 0.6955 0.6208 0.0000
vt 0.7025 0.5700 0.0000
vt 0.8349 0.5759 0.0000
vt 0.8310 0.6289 0.0000
vt 0.4161 0.0948 0.0000
vt 0.4161 0.1176 0.0000
vt 0.9190 0.9674 0.0000
vt 0.9190 0.9900 0.0000
vt 0.8673 0.8335 0.0000
vt 0.9190 0.8335 0.0000
vt 0.9190 0.5869 0.0000
vt 0.9190 0.6099 0.0000
vt 0.9190 0.5642 0.0000
vt 0.9190 0.4984 0.0000
vt 0.9190 0.2267 0.0000
vt 0.9190 0.1473 0.0000
vt 0.9190 0.1230 0.0000
vt 0.4227 0.8802 0.0000
vt 0.8472 0.8335 0.0000
vt 0.4227 0.9672 0.0000
vt 0.4227 0.9900 0.0000
vt 0.2498 0.0343 0.0000
vt 0.2498 0.0100 0.0000
vt 0.3135 0.2196 0.0000
vt 0.3336 0.2196 0.0000
vt 0.5074 0.5291 0.0000
vt 0.5074 0.6085 0.0000
vt 0.1651 0.4950 0.0000
vt 0.1651 0.4722 0.0000
vt 0.5074 0.5048 0.0000
vt 0.2619 0.3043 0.0000
vt 0.8285 0.0764 0.0000
vt 0.6950 0.0860 0.0000
vt 0.8673 0.7488 0.0000
vt 0.9190 0.7488 0.0000
vt 0.5074 0.8802 0.0000
vt 0.8472 0.7488 0.0000
vt 0.5074 0.9671 0.0000
vt 0.5074 0.9898 0.0000
vt 0.1651 0.0343 0.0000
vt 0.1651 0.0100 0.0000
vt 0.2619 0.2196 0.0000
vt 0.3336 0.1476 0.0000
vt 0.1364 0.4741 0.0000
vt 0.1364 0.4513 0.0000
vt 0.5794 0.5048 0.0000
vt 0.5794 0.5291 0.0000
vt 0.9190 0.7133 0.0000
vt 0.6788 0.1351 0.0000
vt 0.6725 0.0893 0.0000
vt 0.6795 0.5717 0.0000
vt 0.6730 0.6173 0.0000
vt 0.9292 0.7674 0.0000
vt 0.9292 0.3293 0.0000
vt 0.9809 0.3293 0.0000
vt 0.9809 0.7674 0.0000
# 181 texture coords

g unwrapped_roof
usemtl wire_108008136
s 1
f 1/1/1 2/2/2 3/3/2 4/4/1 
f 5/5/3 6/6/3 7/7/3 8/8/3 
f 6/9/4 9/10/4 10/11/4 7/12/4 
f 11/13/5 12/14/5 13/15/6 14/16/6 
f 15/17/7 16/18/7 17/19/7 18/20/7 
f 19/21/8 20/22/8 21/23/8 22/24/8 
f 23/25/9 24/26/9 25/27/9 26/28/9 
f 8/8/3 7/7/3 27/29/3 28/30/3 
f 29/31/3 30/32/3 31/33/3 32/34/3 
f 7/12/4 10/11/4 33/35/4 27/36/4 
f 9/10/4 6/9/4 34/37/4 35/38/4 
f 30/39/7 2/40/7 36/41/7 31/42/7 
f 3/43/7 37/44/7 38/45/7 39/46/7 
f 17/47/9 16/48/9 3/3/9 2/2/9 
f 18/49/10 17/50/10 2/40/10 30/39/10 
f 15/51/3 18/52/3 30/32/3 37/53/3 
f 16/54/11 15/55/11 37/44/11 3/43/11 
f 40/56/9 41/57/9 42/58/9 43/59/9 
f 28/30/3 27/29/3 11/60/3 14/61/3 
f 27/36/4 33/35/4 12/14/4 11/13/4 
f 39/46/7 38/45/7 44/62/7 45/63/7 
f 26/28/9 25/27/9 46/64/9 47/65/9 
f 32/34/3 31/33/3 19/66/3 22/67/3 
f 35/38/4 34/37/4 48/68/4 49/69/4 
f 31/42/7 36/41/7 20/70/7 19/71/7 
f 23/25/9 50/72/9 51/73/9 24/26/9 
f 5/5/3 8/8/3 52/74/3 53/75/3 
f 14/16/6 13/15/6 54/76/12 55/77/12 
f 56/78/8 57/79/8 49/80/8 48/81/8 
f 50/72/9 58/82/9 59/83/9 51/73/9 
f 52/74/3 8/8/3 28/30/3 60/84/3 
f 5/5/3 61/85/3 34/86/3 6/6/3 
f 58/82/9 62/87/9 63/88/9 59/83/9 
f 60/84/3 28/30/3 14/61/3 55/89/3 
f 26/28/9 47/65/9 64/90/9 65/91/9 
f 61/85/3 56/92/3 48/93/3 34/86/3 
f 1/1/1 4/4/1 66/94/9 67/95/9 
f 22/24/8 21/23/8 68/96/8 69/97/8 
f 4/4/1 70/98/9 71/99/9 66/94/9 
f 29/31/3 32/34/3 72/100/3 73/101/3 
f 40/56/9 43/59/9 74/102/9 75/103/9 
f 32/34/3 22/67/3 69/104/3 72/100/3 
f 29/31/3 76/105/3 37/53/3 30/32/3 
f 77/106/13 78/107/13 45/108/5 44/109/5 
f 76/105/3 79/110/3 38/111/3 37/53/3 
f 79/110/3 77/112/3 44/113/3 38/111/3 
f 80/114/9 81/115/9 82/116/9 83/117/9 
f 47/118/8 46/119/8 49/80/8 57/79/8 
f 47/118/8 57/79/8 84/120/8 64/121/8 
f 82/122/8 81/123/8 21/23/8 20/22/8 
f 83/124/7 82/125/7 20/70/7 36/41/7 
f 80/126/5 85/127/5 86/128/5 87/129/5 
f 42/130/7 41/131/7 39/46/7 45/63/7 
f 43/132/5 42/133/5 45/108/5 78/107/5 
f 43/132/14 78/107/14 88/134/14 74/135/14 
f 63/136/5 62/137/5 13/15/5 12/14/5 
f 59/138/4 63/136/4 12/14/4 33/35/4 
f 51/139/4 59/138/4 33/35/4 10/11/4 
f 24/140/4 51/139/4 10/11/4 9/10/4 
f 25/141/4 24/140/4 9/10/4 35/38/4 
f 46/142/4 25/141/4 35/38/4 49/69/4 
f 73/101/3 89/143/3 76/105/3 29/31/3 
f 90/144/15 88/134/15 78/107/13 77/106/13 
f 67/95/9 86/128/9 85/127/9 1/1/1 
f 76/105/3 89/143/3 91/145/3 79/110/3 
f 79/110/3 91/145/3 90/146/3 77/112/3 
f 87/147/9 92/148/9 81/115/9 80/114/9 
f 69/97/8 68/96/8 93/149/8 94/150/8 
f 73/101/3 72/100/3 95/151/3 96/152/3 
f 75/103/9 74/102/9 97/153/9 98/154/9 
f 72/100/3 69/104/3 94/155/3 95/151/3 
f 92/156/8 68/96/8 21/23/8 81/123/8 
f 75/157/16 71/99/16 70/98/16 40/158/16 
f 74/135/17 88/134/17 99/159/17 97/160/17 
f 96/152/3 100/161/3 89/143/3 73/101/3 
f 101/162/18 99/159/18 88/134/15 90/144/15 
f 89/143/3 100/161/3 102/163/3 91/145/3 
f 91/145/3 102/163/3 101/164/3 90/146/3 
f 103/165/9 104/166/9 92/148/9 87/147/9 
f 104/167/8 93/149/8 68/96/8 92/156/8 
f 94/150/8 93/149/8 84/120/8 105/168/8 
f 98/154/9 97/153/9 106/169/9 107/170/9 
f 95/151/3 94/155/3 105/171/3 108/172/3 
f 97/160/19 99/159/19 54/76/19 106/173/19 
f 53/75/3 52/74/3 100/161/3 96/152/3 
f 55/77/12 54/76/12 99/159/18 101/162/18 
f 100/161/3 52/74/3 60/84/3 102/163/3 
f 102/163/3 60/84/3 55/89/3 101/164/3 
f 65/91/9 64/90/9 104/166/9 103/165/9 
f 64/121/8 84/120/8 93/149/8 104/167/8 
f 105/168/8 84/120/8 57/79/8 56/78/8 
f 107/170/9 106/169/9 62/87/9 58/82/9 
f 108/172/3 105/171/3 56/92/3 61/85/3 
f 106/173/20 54/76/20 13/15/20 62/137/20 
f 39/174/2 70/98/2 4/4/2 3/3/2 
f 70/98/8 39/174/8 41/175/8 40/158/8 
f 2/2/2 1/1/2 85/127/2 36/176/2 
f 36/176/5 85/127/5 80/126/5 83/177/5 
f 58/82/9 26/28/9 65/91/9 107/170/9 
f 103/165/9 98/154/9 107/170/9 65/91/9 
f 86/178/21 71/179/21 75/180/21 87/181/21 
f 61/85/3 5/5/3 53/75/3 108/172/3 
f 108/172/3 53/75/3 96/152/3 95/151/3 
f 103/165/9 87/147/9 75/103/9 98/154/9 
# 104 polygons

