# 3ds Max Wavefront OBJ Exporter v0.97b - (c)2007 guruware
# File Created: 15.03.2016 20:09:39

mtllib building_2_unwrap.mtl

#
# object Box776
#

v  -46.1060 -365.9952 334.1255
v  -922.1196 -365.9952 334.1255
v  -657.6772 -365.9952 -394.1726
v  -46.1060 -365.9952 -394.1726
v  -636.2500 18.2103 -363.5964
v  -878.4878 18.2103 303.5491
v  -46.1060 18.2103 303.5491
v  -46.1060 18.2103 -363.5964
v  -922.1196 -135.1548 334.1255
v  -46.1060 -135.1548 334.1255
v  -46.1060 -107.3065 334.1255
v  -922.1196 -107.3065 334.1255
v  922.1191 -135.1548 334.1255
v  922.1191 -135.1548 -394.1726
v  922.1191 -107.3065 -394.1726
v  922.1191 -107.3065 334.1255
v  552.2861 -135.1548 -394.1726
v  344.5044 -135.1548 -394.1726
v  344.5044 -107.3065 -394.1726
v  552.2861 -107.3065 -394.1726
v  -657.6772 -135.1548 -394.1726
v  -657.6772 -107.3065 -394.1726
v  344.5044 -365.9952 334.1255
v  344.5044 -365.9952 -394.1726
v  552.2861 -365.9952 -394.1726
v  552.2861 -365.9952 334.1255
v  397.4932 365.9952 -248.1987
v  372.6982 365.9952 188.1511
v  517.8276 365.9952 188.1511
v  487.5229 365.9952 -248.1987
v  344.5044 -135.1548 394.1726
v  552.2861 -135.1548 394.1726
v  552.2861 -107.3065 394.1726
v  344.5044 -107.3065 394.1726
v  -46.1060 -135.1548 -394.1726
v  -46.1060 -107.3065 -394.1726
v  684.4556 18.2103 -307.3420
v  835.2886 18.2103 247.2947
v  900.4980 18.2103 312.5046
v  893.3999 18.2103 -383.6799
v  496.1836 18.2103 -307.3420
v  545.5068 18.2103 -383.6799
v  350.0518 18.2103 -383.6799
v  390.4077 18.2103 -307.3420
v  -24.4849 18.2103 312.5046
v  40.7246 18.2103 247.2947
v  191.5571 18.2103 -307.3420
v  -17.3872 18.2103 -383.6799
v  531.7886 18.2103 247.2947
v  361.2749 18.2103 247.2947
v  348.6807 18.2103 312.5046
v  547.1831 18.2103 312.5046
v  684.4556 306.8519 -307.3420
v  835.2886 306.8519 247.2947
v  496.1836 306.8519 -307.3420
v  390.4077 306.8519 -307.3420
v  40.7246 306.8519 247.2947
v  191.5571 306.8519 -307.3420
v  361.2749 306.8519 247.2947
v  531.7886 306.8519 247.2947
v  647.7671 365.9952 -248.1987
v  776.1455 365.9952 188.1511
v  99.8677 365.9952 188.1511
v  228.2471 365.9952 -248.1987
v  -46.1060 -12.3658 334.1255
v  -46.1060 -12.3658 -394.1726
v  -922.1196 -12.3658 334.1255
v  922.1191 -12.3658 -394.1726
v  922.1191 -12.3658 334.1255
v  552.2861 -12.3658 -394.1726
v  344.5044 -12.3658 -394.1726
v  -657.6772 -12.3658 -394.1726
v  344.5044 -12.3658 334.1255
v  552.2861 -12.3658 334.1255
v  922.1191 -365.9952 -394.1726
v  922.1191 -365.9952 334.1255
v  552.2861 -135.1548 334.1255
v  552.2861 -107.3065 334.1255
v  344.5044 -107.3065 334.1255
v  344.5044 -135.1548 334.1255
# 80 vertices

vn 0.0000 -1.0000 -0.0000
vn -0.3597 0.9239 -0.1306
vn 0.0000 1.0000 -0.0000
vn 0.0000 0.0000 1.0000
vn 1.0000 0.0000 -0.0000
vn 0.0000 0.0000 -1.0000
vn -0.9400 0.0000 -0.3413
vn 0.2813 0.9596 -0.0014
vn 0.9650 0.0000 -0.2624
vn -0.9650 0.0000 -0.2624
vn 0.7590 0.6149 -0.2139
vn 0.0000 0.7071 -0.7071
vn -0.7590 0.6149 -0.2139
vn 0.0000 0.7071 0.7071
vn -0.1425 0.6367 0.7579
vn -0.1420 0.6999 0.6999
vn -0.0605 0.4225 0.9044
vn -0.2276 0.6885 -0.6885
vn -0.2333 0.5044 -0.8314
vn -0.0959 0.3605 -0.9278
vn 0.0000 0.3827 0.9239
vn 0.9414 0.3373 -0.0020
vn 0.0000 0.3246 -0.9459
vn 0.0000 0.1645 -0.9864
vn -0.8684 0.3827 -0.3153
vn 0.0000 0.5774 0.8165
vn 0.0000 0.3029 0.9530
vn 0.0000 0.3827 -0.9239
vn -1.0000 0.0000 -0.0000
# 29 vertex normals

vt 0.2751 0.6711 0.0000
vt 0.2751 0.9900 0.0000
vt 0.0100 0.8937 0.0000
vt 0.0100 0.6711 0.0000
vt 0.5295 0.9018 0.0000
vt 0.2866 0.9900 0.0000
vt 0.2866 0.6870 0.0000
vt 0.5295 0.6870 0.0000
vt 0.6296 0.9899 0.0000
vt 0.6303 0.6711 0.0000
vt 0.6404 0.6710 0.0000
vt 0.6397 0.9900 0.0000
vt 0.6989 0.9300 0.0000
vt 0.9640 0.9300 0.0000
vt 0.9640 0.9402 0.0000
vt 0.6989 0.9402 0.0000
vt 0.1450 0.2474 0.0000
vt 0.2206 0.2479 0.0000
vt 0.2206 0.2581 0.0000
vt 0.1449 0.2575 0.0000
vt 0.6898 0.0704 0.0000
vt 0.4078 0.0704 0.0000
vt 0.4078 0.0603 0.0000
vt 0.6898 0.0603 0.0000
vt 0.2751 0.5290 0.0000
vt 0.0100 0.5290 0.0000
vt 0.0100 0.4533 0.0000
vt 0.2751 0.4533 0.0000
vt 0.8367 0.6778 0.0000
vt 0.8457 0.8367 0.0000
vt 0.7929 0.8367 0.0000
vt 0.8039 0.6778 0.0000
vt 0.3385 0.5825 0.0000
vt 0.4141 0.5825 0.0000
vt 0.4141 0.5926 0.0000
vt 0.3385 0.5926 0.0000
vt 0.3629 0.2489 0.0000
vt 0.5854 0.2456 0.0000
vt 0.5854 0.2556 0.0000
vt 0.3629 0.2592 0.0000
vt 0.5090 0.4211 0.0000
vt 0.3071 0.3662 0.0000
vt 0.2833 0.3425 0.0000
vt 0.5367 0.3450 0.0000
vt 0.5090 0.4896 0.0000
vt 0.5368 0.4717 0.0000
vt 0.5368 0.5428 0.0000
vt 0.5090 0.5281 0.0000
vt 0.2834 0.6792 0.0000
vt 0.3071 0.6554 0.0000
vt 0.5090 0.6005 0.0000
vt 0.5368 0.6766 0.0000
vt 0.3071 0.4767 0.0000
vt 0.3071 0.5387 0.0000
vt 0.2834 0.5433 0.0000
vt 0.2833 0.4711 0.0000
vt 0.1894 0.0494 0.0000
vt 0.3986 0.0494 0.0000
vt 0.3986 0.1545 0.0000
vt 0.1894 0.1545 0.0000
vt 0.1209 0.0494 0.0000
vt 0.1209 0.1545 0.0000
vt 0.0824 0.1545 0.0000
vt 0.0824 0.0494 0.0000
vt 0.7271 0.3719 0.0000
vt 0.7271 0.1627 0.0000
vt 0.8322 0.1627 0.0000
vt 0.8322 0.3719 0.0000
vt 0.7271 0.4886 0.0000
vt 0.8322 0.4886 0.0000
vt 0.8322 0.5506 0.0000
vt 0.7271 0.5506 0.0000
vt 0.2067 0.0210 0.0000
vt 0.3722 0.0231 0.0000
vt 0.1177 0.0190 0.0000
vt 0.0850 0.0190 0.0000
vt 0.7008 0.3455 0.0000
vt 0.6987 0.1799 0.0000
vt 0.6967 0.5456 0.0000
vt 0.6967 0.4927 0.0000
vt 0.6887 0.6630 0.0000
vt 0.6908 0.6712 0.0000
vt 0.6751 0.6710 0.0000
vt 0.3641 0.3100 0.0000
vt 0.3522 0.3057 0.0000
vt 0.3630 0.2942 0.0000
vt 0.6899 0.9741 0.0000
vt 0.6742 0.9900 0.0000
vt 0.9640 0.9747 0.0000
vt 0.9602 0.9900 0.0000
vt 0.7067 0.9884 0.0000
vt 0.6989 0.9747 0.0000
vt 0.1471 0.3038 0.0000
vt 0.1447 0.2920 0.0000
vt 0.2205 0.2925 0.0000
vt 0.2183 0.3043 0.0000
vt 0.4078 0.0257 0.0000
vt 0.4237 0.0100 0.0000
vt 0.6820 0.0100 0.0000
vt 0.6898 0.0257 0.0000
vt 0.6882 0.5271 0.0000
vt 0.6746 0.5287 0.0000
vt 0.6744 0.4531 0.0000
vt 0.6880 0.4549 0.0000
vt 0.5784 0.3053 0.0000
vt 0.5860 0.2897 0.0000
vt 0.0102 0.2566 0.0000
vt 0.0103 0.2465 0.0000
vt 0.0100 0.3187 0.0000
vt 0.2751 0.3187 0.0000
vt 0.7456 0.6778 0.0000
vt 0.6989 0.8367 0.0000
vt 0.8983 0.6778 0.0000
vt 0.9450 0.8367 0.0000
vt 0.6297 0.4533 0.0000
vt 0.6296 0.3186 0.0000
vt 0.6397 0.3185 0.0000
vt 0.6398 0.4532 0.0000
vt 0.6401 0.5288 0.0000
vt 0.6300 0.5290 0.0000
vt 0.0100 0.1545 0.0000
vt 0.0100 0.0494 0.0000
vt 0.8322 0.6611 0.0000
vt 0.7271 0.6611 0.0000
vt 0.0234 0.0190 0.0000
vt 0.1761 0.0190 0.0000
vt 0.6967 0.6396 0.0000
vt 0.6967 0.3934 0.0000
vt 0.0204 0.3030 0.0000
vt 0.0100 0.2911 0.0000
vt 0.6879 0.3263 0.0000
vt 0.6743 0.3184 0.0000
vt 0.5456 0.9900 0.0000
vt 0.5461 0.6711 0.0000
vt 0.6989 0.8460 0.0000
vt 0.9640 0.8460 0.0000
vt 0.1454 0.1632 0.0000
vt 0.2210 0.1638 0.0000
vt 0.6898 0.1545 0.0000
vt 0.4078 0.1545 0.0000
vt 0.5460 0.5290 0.0000
vt 0.5458 0.4534 0.0000
vt 0.3631 0.1646 0.0000
vt 0.5854 0.1624 0.0000
vt 0.0107 0.1624 0.0000
vt 0.5455 0.3188 0.0000
vt 0.4360 0.5825 0.0000
vt 0.4360 0.5926 0.0000
vt 0.4141 0.6144 0.0000
vt 0.3385 0.6144 0.0000
vt 0.3167 0.5926 0.0000
vt 0.3167 0.5825 0.0000
vt 0.3385 0.5606 0.0000
vt 0.4141 0.5606 0.0000
# 154 texture coords

g Box776
usemtl wire_108008136
s 1
f 1/1/1 2/2/1 3/3/1 4/4/1 
f 5/5/2 6/6/2 7/7/3 8/8/3 
f 9/9/4 10/10/4 11/11/4 12/12/4 
f 13/13/5 14/14/5 15/15/5 16/16/5 
f 17/17/6 18/18/6 19/19/6 20/20/6 
f 21/21/7 9/22/7 12/23/7 22/24/7 
f 23/25/1 24/26/1 25/27/1 26/28/1 
f 27/29/3 28/30/3 29/31/3 30/32/3 
f 31/33/4 32/34/4 33/35/4 34/36/4 
f 35/37/6 21/38/6 22/39/6 36/40/6 
f 37/41/3 38/42/3 39/43/8 40/44/8 
f 41/45/3 42/46/3 43/47/3 44/48/3 
f 45/49/3 46/50/3 8/8/3 7/7/3 
f 47/51/3 48/52/3 8/8/3 46/50/3 
f 49/53/3 50/54/3 51/55/3 52/56/3 
f 53/57/9 54/58/9 38/59/9 37/60/9 
f 55/61/6 41/62/6 44/63/6 56/64/6 
f 57/65/10 58/66/10 47/67/10 46/68/10 
f 59/69/4 50/70/4 49/71/4 60/72/4 
f 53/57/11 61/73/11 62/74/11 54/58/11 
f 30/75/12 55/61/12 56/64/12 27/76/12 
f 57/65/13 63/77/13 64/78/13 58/66/13 
f 29/79/14 28/80/14 59/69/14 60/72/14 
f 45/81/15 7/82/16 65/83/17 
f 8/84/18 48/85/19 66/86/20 
f 65/83/17 7/82/16 6/87/14 67/88/21 
f 68/89/22 40/90/8 39/91/8 69/92/22 
f 42/93/23 70/94/24 71/95/24 43/96/23 
f 67/97/25 6/98/2 5/99/2 72/100/25 
f 51/101/26 73/102/27 74/103/27 52/104/26 
f 5/105/12 8/84/18 66/86/20 72/106/28 
f 18/18/6 35/37/6 36/40/6 19/19/6 
f 20/20/6 15/107/6 14/108/6 17/17/6 
f 26/28/1 25/27/1 75/109/1 76/110/1 
f 24/26/1 23/25/1 1/1/1 4/4/1 
f 61/111/3 30/32/3 29/31/3 62/112/3 
f 28/30/3 27/29/3 64/113/3 63/114/3 
f 77/115/4 13/116/4 16/117/4 78/118/4 
f 79/119/4 11/11/4 10/10/4 80/120/4 
f 47/51/3 44/48/3 43/47/3 48/52/3 
f 42/46/3 41/45/3 37/41/3 40/44/8 
f 38/42/3 49/53/3 52/56/3 39/43/8 
f 51/55/3 50/54/3 46/50/3 45/49/3 
f 56/64/6 44/63/6 47/121/6 58/122/6 
f 41/62/6 55/61/6 53/57/6 37/60/6 
f 60/72/4 49/71/4 38/123/4 54/124/4 
f 50/70/4 59/69/4 57/65/4 46/68/4 
f 64/125/12 27/76/12 56/64/12 58/122/12 
f 55/61/12 30/75/12 61/126/12 53/57/12 
f 62/127/14 29/79/14 60/72/14 54/124/14 
f 59/69/14 28/80/14 63/128/14 57/65/14 
f 48/85/19 43/96/23 71/95/24 66/86/20 
f 70/94/24 42/93/23 40/129/23 68/130/24 
f 39/131/26 52/104/26 74/103/27 69/132/27 
f 73/102/27 51/101/26 45/81/15 65/83/17 
f 12/12/4 11/11/4 65/83/17 67/88/21 
f 10/10/4 9/9/4 2/133/4 1/134/4 
f 16/16/5 15/15/5 68/89/22 69/92/22 
f 14/14/5 13/13/5 76/135/5 75/136/5 
f 20/20/6 19/19/6 71/95/24 70/94/24 
f 18/18/6 17/17/6 25/137/6 24/138/6 
f 22/24/7 12/23/7 67/97/25 72/100/25 
f 9/22/7 21/21/7 3/139/7 2/140/7 
f 79/119/4 78/118/4 74/103/27 73/102/27 
f 77/115/4 80/120/4 23/141/4 26/142/4 
f 36/40/6 22/39/6 72/106/28 66/86/20 
f 21/38/6 35/37/6 4/143/6 3/144/6 
f 19/19/6 36/40/6 66/86/20 71/95/24 
f 35/37/6 18/18/6 24/138/6 4/143/6 
f 17/17/6 14/108/6 75/145/6 25/137/6 
f 15/107/6 20/20/6 70/94/24 68/130/24 
f 78/118/4 16/117/4 69/132/27 74/103/27 
f 13/116/4 77/115/4 26/142/4 76/146/4 
f 80/120/4 10/10/4 1/134/4 23/141/4 
f 11/11/4 79/119/4 73/102/27 65/83/17 
f 33/35/5 32/34/5 77/147/5 78/148/5 
f 34/36/3 33/35/3 78/149/3 79/150/3 
f 31/33/29 34/36/29 79/151/29 80/152/29 
f 32/34/1 31/33/1 80/153/1 77/154/1 
# 77 polygons - 2 triangles

