# Wavefront Obj file
# 
# verts: 192 uv-s: 319
mtllib building_1_lowpoly_unwrapped.mtl

g building_1

v -465.924103 -560.124023 -521.385010
v -406.562408 -560.124023 188.213699
v -751.978638 -560.124023 141.113098
v -768.475342 -560.124023 -526.557922
v -701.574829 505.549713 131.737900
v -455.041901 505.549713 131.732407
v -456.626587 505.549713 -448.843811
v -702.015381 505.549713 -448.843201
v -399.238586 -560.124023 652.107727
v -399.238586 -459.503906 652.107727
v -749.943237 -459.503906 652.107727
v -749.943237 -560.124023 652.107727
v 884.914429 -560.124023 -519.751526
v 884.914429 -459.503906 -519.751526
v 884.914429 -459.503906 203.087601
v 884.914429 -560.124023 203.087601
v -258.535889 -560.124023 -652.107483
v -258.535889 -459.503906 -652.107483
v 720.900024 -459.503906 -652.107483
v 720.900024 -560.124023 -652.107483
v -884.914185 -560.124023 122.986099
v -884.914185 -459.503906 122.986099
v -884.914185 -459.503906 -528.548706
v -884.914185 -560.124023 -528.548706
v 721.790161 -560.124023 -519.751404
v 729.004028 -560.124023 203.087601
v -184.748001 -560.124023 203.087601
v -250.432098 -560.124023 -519.751404
v 641.218140 505.549713 -448.842102
v -267.073486 505.549713 -448.843811
v -265.320007 505.549713 131.732697
v 641.410767 505.549713 131.748505
v 729.894043 -560.124023 335.443695
v 729.894043 -459.503906 335.443695
v -176.644104 -459.503906 335.443695
v -176.644104 -560.124023 335.443695
v -770.510742 -459.503906 -652.107483
v -473.247894 -459.503906 -652.107483
v -473.247894 -560.124023 -652.107483
v -770.510742 -560.124023 -652.107483
v -701.520508 505.549713 477.180908
v -454.846405 505.549713 477.179413
v -454.846405 505.549713 203.362000
v -701.520508 505.549713 203.367996
v -884.914185 -459.503906 203.370300
v -884.914185 -459.503906 544.410706
v -884.914185 3.009800 544.410706
v -884.914185 3.009800 203.370300
v -399.238586 -560.124023 275.761597
v -399.238586 -560.124023 561.784607
v -749.943237 -560.124023 549.239014
v -749.943237 -560.124023 223.488098
v -288.489685 -459.503906 292.269012
v -288.489685 -459.503906 565.746399
v -288.489685 -560.124023 565.746399
v -288.489685 -560.124023 292.269012
v 841.739624 3.009800 -519.751526
v 753.280151 3.009800 -448.841797
v 753.280273 3.009800 131.750504
v 841.739624 3.009800 203.087601
v -258.535889 3.009800 -608.932922
v -267.289886 3.009800 -520.473328
v 641.194458 3.009800 -520.473328
v 720.900146 3.009800 -608.932922
v -702.069580 3.009800 -520.473328
v -456.822113 3.009800 -520.473328
v -473.247894 3.009800 -608.932922
v -770.510742 3.009800 -608.932922
v -884.914185 3.009800 122.986198
v -796.454590 3.009800 131.739899
v -796.454590 3.009800 -448.842987
v -884.914185 3.009800 -528.548706
v -796.454590 3.009800 477.181488
v -796.454590 3.009800 203.370300
v -749.943237 3.009800 652.107727
v -399.238586 3.009800 652.107727
v -454.846405 3.009800 563.648071
v -701.520508 3.009800 563.648071
v -288.489685 3.009800 565.746399
v -376.949310 3.009800 477.178986
v -376.949310 3.009800 563.648071
v -288.489685 3.009800 652.107727
v -176.644104 3.009800 292.269012
v 729.894043 3.009800 292.269012
v 641.434570 3.009800 203.379807
v -265.103607 3.009800 203.362198
v 753.280151 505.549713 -448.841797
v 753.280273 505.549713 131.750504
v -267.289886 505.549713 -520.473328
v 641.194458 505.549713 -520.473328
v -702.069580 505.549713 -520.473328
v -456.822113 505.549713 -520.473328
v -796.454590 505.549713 131.739899
v -796.454590 505.549713 -448.842987
v -796.454590 505.549713 477.181488
v -796.454590 505.549713 203.370300
v -454.846405 505.549713 563.648071
v -701.520508 505.549713 563.648071
v -376.949310 505.549713 477.178986
v -376.949310 505.549713 563.648071
v 641.434570 505.549713 203.379807
v -265.103607 505.549713 203.362198
v 841.739624 -459.503906 203.087601
v 841.739624 -459.503906 -519.751526
v 720.900024 -459.503906 -608.932922
v -258.535889 -459.503906 -608.932922
v -176.644104 -459.503906 292.269012
v 729.894043 -459.503906 292.269012
v -473.247894 -459.503906 -608.932922
v -770.510742 -459.503906 -608.932922
v -884.914185 -560.124023 203.370300
v -884.914185 -560.124023 544.410706
v -288.489685 3.009800 292.269012
v -379.375488 -560.124023 -652.107483
v -379.375488 -459.503906 -652.107483
v 841.739624 -459.503906 -608.932922
v 841.739624 -560.124023 -608.932922
v 720.900024 -560.124023 -608.932922
v 841.739624 -560.124023 203.087601
v 841.739624 -560.124023 -519.751526
v -297.483612 -560.124023 203.087601
v -370.381592 -560.124023 -519.751526
v 753.280151 560.124023 -448.841797
v 641.218140 560.124023 -448.842102
v 641.410767 560.124023 131.748505
v 753.280273 560.124023 131.750504
v -377.189392 505.549713 131.730698
v -379.135406 505.549713 -448.843903
v 841.739624 -560.124023 292.269012
v 841.739624 -459.503906 292.269012
v 729.894043 -560.124023 292.269012
v -176.644104 -560.124023 292.269012
v -379.375488 3.009800 -608.932922
v -379.375488 3.009800 -520.473328
v 753.280151 3.009800 -520.473328
v 841.739624 3.009800 -608.932922
v 841.739624 3.009800 292.269012
v 753.280273 3.009800 203.382004
v -376.949310 3.009800 203.360001
v -379.375488 505.549713 -520.473328
v 753.280151 505.549713 -520.473328
v 753.280273 505.549713 203.382004
v -376.949310 505.549713 203.360001
v -379.375488 -459.503906 -608.932922
v -473.247894 -560.124023 -608.932922
v -770.510742 -560.124023 -608.932922
v -702.015381 560.124023 -448.843201
v -456.626587 560.124023 -448.843811
v -456.822113 560.124023 -520.473328
v -702.069580 560.124023 -520.473328
v -884.914185 -459.503906 -608.932922
v -884.914185 -560.124023 -608.932922
v -258.535889 -560.124023 -608.932922
v 641.194458 560.124023 -520.473328
v -267.289886 560.124023 -520.473328
v -267.073486 560.124023 -448.843811
v -265.103607 560.124023 203.362198
v 641.434570 560.124023 203.379807
v -265.320007 560.124023 131.732697
v -796.454590 3.009800 -520.473328
v -884.914185 3.009800 -608.932922
v -796.454590 505.549713 -520.473328
v -379.375488 -560.124023 -608.932922
v 753.280151 560.124023 -520.473328
v 753.280273 560.124023 203.382004
v -376.949310 560.124023 203.360001
v -377.189392 560.124023 131.730698
v -379.375488 560.124023 -520.473328
v -379.135406 560.124023 -448.843903
v -796.454590 560.124023 -448.842987
v -796.454590 560.124023 131.739899
v -701.574829 560.124023 131.737900
v -884.914185 -459.503906 652.107727
v -884.914185 -560.124023 652.107727
v -796.454590 560.124023 203.370300
v -796.454590 560.124023 477.181488
v -701.520508 560.124023 477.180908
v -701.520508 560.124023 203.367996
v -796.454590 3.009800 563.648071
v -884.914185 3.009800 652.107727
v -796.454590 505.549713 563.648071
v -796.454590 560.124023 -520.473328
v -288.489685 -560.124023 652.107727
v -288.489685 -459.503906 652.107727
v -376.949310 560.124023 563.648071
v -376.949310 560.124023 477.178986
v -454.846405 560.124023 477.179413
v -454.846405 560.124023 563.648071
v -455.041901 560.124023 131.732407
v -454.846405 560.124023 203.362000
v -701.520508 560.124023 563.648071
v -796.454590 560.124023 563.648071
# 192 positions

vt 0.154960 0.408076
vt 0.169859 0.586191
vt 0.083158 0.574368
vt 0.079018 0.406778
vt 0.023762 0.218249
vt 0.085644 0.218244
vt 0.085293 0.363967
vt 0.023699 0.363984
vt 0.809273 0.353368
vt 0.809273 0.328111
vt 0.897303 0.328111
vt 0.897303 0.353367
vt 0.841884 0.691794
vt 0.816628 0.691794
vt 0.816628 0.510357
vt 0.841884 0.510357
vt 0.266685 0.036515
vt 0.266681 0.061771
vt 0.020839 0.061793
vt 0.020837 0.036537
vt 0.755500 0.857187
vt 0.730244 0.857187
vt 0.730244 0.693648
vt 0.755500 0.693648
vt 0.453084 0.408486
vt 0.454895 0.589923
vt 0.225536 0.589923
vt 0.209049 0.408487
vt 0.360860 0.363889
vt 0.132872 0.363956
vt 0.133266 0.218227
vt 0.360864 0.218156
vt 0.447332 0.642222
vt 0.447332 0.667478
vt 0.219785 0.667478
vt 0.219785 0.642222
vt 0.395189 0.061793
vt 0.320575 0.061780
vt 0.320579 0.036524
vt 0.395194 0.036537
vt 0.023801 0.131534
vt 0.085720 0.131549
vt 0.085677 0.200267
vt 0.023771 0.200267
vt 0.730244 0.877364
vt 0.730244 0.962967
vt 0.614150 0.962967
vt 0.614150 0.877364
vt 0.171698 0.608166
vt 0.171698 0.679959
vt 0.083669 0.676810
vt 0.083669 0.595044
vt 0.694875 0.304525
vt 0.694875 0.235880
vt 0.720131 0.235881
vt 0.720131 0.304525
vt 0.967614 0.827956
vt 0.949815 0.850160
vt 0.804083 0.850160
vt 0.786177 0.827956
vt 0.286176 0.827957
vt 0.288374 0.850161
vt 0.060338 0.850159
vt 0.040332 0.827955
vt 0.397506 0.850160
vt 0.335948 0.850160
vt 0.340070 0.827956
vt 0.414685 0.827956
vt 0.614150 0.857187
vt 0.591946 0.859384
vt 0.591946 0.713654
vt 0.614150 0.693648
vt 0.591946 0.946092
vt 0.591946 0.877364
vt 0.897303 0.212017
vt 0.809273 0.212017
vt 0.823231 0.189813
vt 0.885148 0.189813
vt 0.578781 0.235879
vt 0.556577 0.258110
vt 0.556577 0.236406
vt 0.578782 0.214202
vt 0.542173 0.502896
vt 0.769720 0.502896
vt 0.747516 0.525208
vt 0.519969 0.525212
vt 0.949815 0.976301
vt 0.804083 0.976301
vt 0.288374 0.976302
vt 0.060338 0.976300
vt 0.397507 0.976301
vt 0.335948 0.976301
vt 0.465805 0.859384
vt 0.465805 0.713654
vt 0.465805 0.946092
vt 0.465805 0.877364
vt 0.823231 0.063672
vt 0.885148 0.063673
vt 0.430436 0.258110
vt 0.430436 0.236406
vt 0.747519 0.651349
vt 0.519972 0.651353
vt 0.786175 0.711863
vt 0.967614 0.711863
vt 0.040332 0.711862
vt 0.286176 0.711863
vt 0.542172 0.386802
vt 0.769719 0.386802
vt 0.340070 0.711862
vt 0.414685 0.711862
vt 0.755500 0.877364
vt 0.755500 0.962967
vt 0.578781 0.304524
vt 0.297016 0.036520
vt 0.297013 0.061776
vt 0.010000 0.711862
vt 0.010000 0.686605
vt 0.040332 0.686605
vt 0.483192 0.589923
vt 0.483192 0.408485
vt 0.197239 0.589924
vt 0.178941 0.408487
vt 0.773100 0.335386
vt 0.744961 0.335337
vt 0.744995 0.189617
vt 0.773092 0.189662
vt 0.105186 0.218237
vt 0.104744 0.363963
vt 0.797793 0.361545
vt 0.797793 0.386802
vt 0.769718 0.361546
vt 0.514098 0.386802
vt 0.514098 0.361546
vt 0.542172 0.361546
vt 0.316508 0.827957
vt 0.316508 0.850161
vt 0.032204 0.850159
vt 0.010000 0.827955
vt 0.797794 0.502896
vt 0.775590 0.525207
vt 0.491895 0.525213
vt 0.514099 0.502896
vt 0.316509 0.976302
vt 0.032204 0.976300
vt 0.775593 0.651348
vt 0.491899 0.651354
vt 0.316507 0.711863
vt 0.219785 0.631385
vt 0.447332 0.631385
vt 0.758882 0.386802
vt 0.758882 0.361546
vt 0.447332 0.678315
vt 0.219785 0.678315
vt 0.208948 0.667478
vt 0.208948 0.642222
vt 0.153122 0.386101
vt 0.078507 0.386101
vt 0.408019 0.335273
vt 0.469569 0.335076
vt 0.469593 0.353053
vt 0.408080 0.353252
vt 0.990000 0.686607
vt 0.990000 0.711863
vt 0.967615 0.686606
vt 0.763791 0.711863
vt 0.763791 0.686606
vt 0.786176 0.686607
vt 0.730244 0.673471
vt 0.755500 0.673470
vt 0.455118 0.612308
vt 0.227571 0.612309
vt 0.207016 0.386102
vt 0.452860 0.386101
vt 0.744959 0.353314
vt 0.517082 0.353030
vt 0.517114 0.335053
vt 0.517415 0.171280
vt 0.745033 0.171641
vt 0.517309 0.189257
vt 0.989999 0.827957
vt 0.967796 0.850160
vt 0.786104 0.850160
vt 0.763792 0.827957
vt 0.591946 0.695674
vt 0.614150 0.673470
vt 0.967796 0.976301
vt 0.786103 0.976301
vt 0.465805 0.695674
vt 0.483192 0.612308
vt 0.483191 0.386100
vt 0.176684 0.386101
vt 0.199497 0.612309
vt 0.773082 0.353368
vt 0.773110 0.171694
vt 0.489296 0.171263
vt 0.489242 0.189242
vt 0.488994 0.353018
vt 0.489010 0.335042
vt 0.852721 0.510357
vt 0.852721 0.691794
vt 0.841884 0.702631
vt 0.816628 0.702631
vt 0.805791 0.691794
vt 0.805791 0.510357
vt 0.816628 0.499520
vt 0.841884 0.499520
vt 0.049791 0.569817
vt 0.049791 0.406278
vt 0.384317 0.335386
vt 0.383865 0.189654
vt 0.407690 0.189534
vt 0.931181 0.328111
vt 0.931181 0.353367
vt 0.443401 0.686605
vt 0.443401 0.711862
vt 0.414685 0.686605
vt 0.383822 0.171666
vt 0.383660 0.102922
vt 0.407493 0.102812
vt 0.407663 0.171552
vt 0.049790 0.702630
vt 0.049790 0.675598
vt 0.083668 0.702631
vt 0.443400 0.827955
vt 0.421197 0.850160
vt 0.908977 0.189813
vt 0.931181 0.212017
vt 0.421198 0.976301
vt 0.908977 0.063672
vt 0.049791 0.386101
vt 0.049790 0.589994
vt 0.384396 0.353366
vt 0.266686 0.025678
vt 0.297018 0.025683
vt 0.320581 0.025687
vt 0.406031 0.036539
vt 0.406027 0.061795
vt 0.320573 0.072617
vt 0.395188 0.072630
vt 0.297011 0.072613
vt 0.266680 0.072608
vt 0.020839 0.072630
vt 0.010002 0.061794
vt 0.010000 0.036538
vt 0.020837 0.025700
vt 0.781475 0.353368
vt 0.781475 0.328111
vt 0.488911 0.080840
vt 0.488994 0.102537
vt 0.469437 0.102596
vt 0.469355 0.080902
vt 0.199496 0.680953
vt 0.781475 0.212017
vt 0.803679 0.189813
vt 0.803678 0.063672
vt 0.469706 0.189290
vt 0.469721 0.171314
vt 0.395196 0.025700
vt 0.407408 0.081117
vt 0.730244 0.990000
vt 0.614150 0.990000
vt 0.171698 0.702631
vt 0.694875 0.214203
vt 0.720132 0.214203
vt 0.591946 0.967796
vt 0.556577 0.326840
vt 0.465804 0.967796
vt 0.430436 0.326840
vt 0.755500 0.990000
vt 0.383579 0.081224
vt 0.199497 0.702630
vt 0.804083 0.989999
vt 0.786104 0.990000
vt 0.949816 0.990000
vt 0.967796 0.990000
vt 0.060338 0.989999
vt 0.032204 0.989998
vt 0.288374 0.990000
vt 0.316509 0.990000
vt 0.335948 0.990000
vt 0.397507 0.990000
vt 0.421198 0.989999
vt 0.452107 0.713654
vt 0.452107 0.695674
vt 0.452107 0.859384
vt 0.452106 0.877364
vt 0.452106 0.946091
vt 0.452106 0.967795
vt 0.885148 0.049974
vt 0.908977 0.049974
vt 0.823231 0.049974
vt 0.803678 0.049974
vt 0.416738 0.258110
vt 0.416738 0.236406
vt 0.416737 0.326841
vt 0.519972 0.665052
vt 0.491899 0.665052
vt 0.747519 0.665047
vt 0.775593 0.665047
vt 0.374563 0.218157
vt 0.374558 0.363890
vt 0.133261 0.204528
vt 0.360860 0.204458
vt 0.105181 0.204538
vt 0.085640 0.204545
vt 0.099375 0.200289
vt 0.099345 0.218270
vt 0.099419 0.131560
vt 0.023806 0.117835
vt 0.085722 0.117851
vt 0.010072 0.200263
vt 0.010101 0.131533
vt 0.010064 0.218244
vt 0.010000 0.363978
vt 0.085296 0.377666
vt 0.023702 0.377683
vt 0.104748 0.377662
vt 0.132876 0.377655
vt 0.360864 0.377588
# 319 texture coordinates

vn 0.000000 -1.000000 0.000000
vn 0.000000 1.000000 0.000000
vn 0.000000 0.000000 1.000000
vn 1.000000 0.000000 -0.000000
vn 0.000001 0.000000 -1.000000
vn -1.000000 0.000000 0.000000
vn -0.000016 0.000000 1.000000
vn -1.000000 0.000000 0.000332
vn -0.000011 0.000000 -1.000000
vn -0.999996 0.000000 0.002729
vn 1.000000 0.000000 -0.000759
# 11 normals

usemtl wire_177028149
f 1/1/1 2/2/1 3/3/1 4/4/1
f 5/5/2 6/6/2 7/7/2 8/8/2
f 9/9/3 10/10/3 11/11/3 12/12/3
f 13/13/4 14/14/4 15/15/4 16/16/4
f 17/17/5 18/18/5 19/19/5 20/20/5
f 21/21/6 22/22/6 23/23/6 24/24/6
f 25/25/1 26/26/1 27/27/1 28/28/1
f 29/29/2 30/30/2 31/31/2 32/32/2
f 33/33/3 34/34/3 35/35/3 36/36/3
f 37/37/5 38/38/5 39/39/5 40/40/5
f 41/41/2 42/42/2 43/43/2 44/44/2
f 45/45/6 46/46/6 47/47/6 48/48/6
f 49/49/1 50/50/1 51/51/1 52/52/1
f 53/53/4 54/54/4 55/55/4 56/56/4
f 57/57/2 58/58/2 59/59/2 60/60/2
f 61/61/2 62/62/2 63/63/2 64/64/2
f 65/65/2 66/66/2 67/67/2 68/68/2
f 69/69/2 70/70/2 71/71/2 72/72/2
f 48/48/2 47/47/2 73/73/2 74/74/2
f 75/75/2 76/76/2 77/77/2 78/78/2
f 79/79/2 80/80/2 81/81/2 82/82/2
f 83/83/2 84/84/2 85/85/2 86/86/2
f 58/58/4 87/87/4 88/88/4 59/59/4
f 62/62/5 89/89/5 90/90/5 63/63/5
f 91/91/5 92/92/5 66/66/5 65/65/5
f 70/70/6 93/93/6 94/94/6 71/71/6
f 73/73/6 95/95/6 96/96/6 74/74/6
f 77/77/3 97/97/3 98/98/3 78/78/3
f 80/80/4 99/99/4 100/100/4 81/81/4
f 85/85/7 101/101/7 102/102/7 86/86/7
f 11/11/3 10/10/3 76/76/3 75/75/3
f 60/60/4 103/103/4 104/104/4 57/57/4
f 64/64/5 105/105/5 106/106/5 61/61/5
f 72/72/6 23/23/6 22/22/6 69/69/6
f 83/83/3 107/107/3 108/108/3 84/84/3
f 67/67/5 109/109/5 110/110/5 68/68/5
f 111/111/6 112/112/6 46/46/6 45/45/6
f 113/113/4 79/79/4 54/54/4 53/53/4
f 114/114/5 115/115/5 18/18/5 17/17/5
f 116/116/5 117/117/5 118/118/5 105/105/5
f 119/119/1 26/26/1 25/25/1 120/120/1
f 121/121/1 122/122/1 28/28/1 27/27/1
f 123/123/2 124/124/2 125/125/2 126/126/2
f 127/127/2 31/31/2 30/30/2 128/128/2
f 129/129/3 130/130/3 108/108/3 131/131/3
f 53/132/3 56/133/3 132/134/3 107/107/3
f 133/135/2 134/136/2 62/62/2 61/61/2
f 135/137/2 136/138/2 64/64/2 63/63/2
f 84/84/2 137/139/2 138/140/2 85/85/2
f 86/86/2 139/141/2 113/142/2 83/83/2
f 134/136/5 140/143/5 89/89/5 62/62/5
f 141/144/5 135/137/5 63/63/5 90/90/5
f 138/140/7 142/145/7 101/101/7 85/85/7
f 143/146/7 139/141/7 86/86/7 102/102/7
f 136/138/5 116/116/5 105/105/5 64/64/5
f 144/147/5 133/135/5 61/61/5 106/106/5
f 113/142/3 53/132/3 107/107/3 83/83/3
f 130/130/3 137/139/3 84/84/3 108/108/3
f 132/148/1 131/149/1 33/33/1 36/36/1
f 131/131/4 108/108/4 34/150/4 33/151/4
f 108/152/2 107/153/2 35/35/2 34/34/2
f 107/154/6 132/155/6 36/36/6 35/35/6
f 145/156/1 1/1/1 4/4/1 146/157/1
f 52/52/1 3/3/1 2/2/1 49/49/1
f 147/158/2 148/159/2 149/160/2 150/161/2
f 43/43/2 6/6/2 5/5/2 44/44/2
f 117/162/4 116/163/4 104/104/4 120/164/4
f 130/165/4 129/166/4 119/167/4 103/103/4
f 111/111/6 45/45/6 22/22/6 21/21/6
f 151/168/6 152/169/6 24/24/6 23/23/6
f 26/26/1 131/170/1 132/171/1 27/27/1
f 28/28/1 153/172/1 118/173/1 25/25/1
f 154/174/2 155/175/2 156/176/2 124/124/2
f 157/177/2 158/178/2 125/125/2 159/179/2
f 57/57/2 136/180/2 135/181/2 58/58/2
f 138/182/2 137/183/2 60/60/2 59/59/2
f 48/48/2 74/74/2 70/70/2 69/69/2
f 160/184/2 161/185/2 72/72/2 71/71/2
f 135/181/4 141/186/4 87/87/4 58/58/4
f 142/187/4 138/182/4 59/59/4 88/88/4
f 74/74/6 96/96/6 93/93/6 70/70/6
f 162/188/6 160/184/6 71/71/6 94/94/6
f 137/183/4 130/165/4 103/103/4 60/60/4
f 116/163/4 136/180/4 57/57/4 104/104/4
f 161/185/6 151/168/6 23/23/6 72/72/6
f 45/45/6 48/48/6 69/69/6 22/22/6
f 129/189/1 131/170/1 26/26/1 119/119/1
f 118/173/1 117/190/1 120/120/1 25/25/1
f 122/122/1 163/191/1 153/172/1 28/28/1
f 27/27/1 132/171/1 56/192/1 121/121/1
f 164/193/2 154/174/2 124/124/2 123/123/2
f 158/178/2 165/194/2 126/126/2 125/125/2
f 166/195/2 157/177/2 159/179/2 167/196/2
f 155/175/2 168/197/2 169/198/2 156/176/2
f 119/199/1 120/200/1 13/13/1 16/16/1
f 120/201/5 104/202/5 14/14/5 13/13/5
f 104/203/2 103/204/2 15/15/2 14/14/2
f 103/205/3 119/206/3 16/16/3 15/15/3
f 21/207/1 24/208/1 4/4/1 3/3/1
f 170/209/2 171/210/2 172/211/2 147/158/2
f 173/212/3 174/213/3 12/12/3 11/11/3
f 152/214/5 151/215/5 110/110/5 146/216/5
f 175/217/2 176/218/2 177/219/2 178/220/2
f 174/221/1 112/222/1 51/51/1 12/223/1
f 68/68/2 161/224/2 160/225/2 65/65/2
f 179/226/2 180/227/2 75/75/2 78/78/2
f 160/225/5 162/228/5 91/91/5 65/65/5
f 181/229/3 179/226/3 78/78/3 98/98/3
f 180/227/3 173/212/3 11/11/3 75/75/3
f 151/215/5 161/224/5 68/68/5 110/110/5
f 24/208/1 152/230/1 146/157/1 4/4/1
f 111/231/1 21/207/1 3/3/1 52/52/1
f 182/232/2 170/209/2 147/158/2 150/161/2
f 171/210/2 175/217/2 178/220/2 172/211/2
f 153/233/1 163/234/1 114/114/1 17/17/1
f 145/235/1 39/39/1 114/114/1 163/234/1
f 146/236/6 110/237/6 37/37/6 40/40/6
f 109/238/2 38/38/2 37/37/2 110/239/2
f 144/240/2 106/241/2 18/18/2 115/115/2
f 106/241/2 105/242/2 19/19/2 18/18/2
f 105/243/4 118/244/4 20/20/4 19/19/4
f 118/245/1 153/233/1 17/17/1 20/20/1
f 122/122/1 121/121/1 2/2/1 1/1/1
f 127/127/2 128/128/2 7/7/2 6/6/2
f 183/246/3 184/247/3 10/10/3 9/9/3
f 115/115/5 114/114/5 39/39/5 38/38/5
f 185/248/2 186/249/2 187/250/2 188/251/2
f 56/192/1 55/252/1 50/50/1 49/49/1
f 66/66/2 134/136/2 133/135/2 67/67/2
f 76/76/2 82/253/2 81/254/2 77/77/2
f 140/143/5 134/136/5 66/66/5 92/92/5
f 81/254/3 100/255/3 97/97/3 77/77/3
f 184/247/3 82/253/3 76/76/3 10/10/3
f 133/135/5 144/147/5 109/109/5 67/67/5
f 163/191/1 122/122/1 1/1/1 145/156/1
f 121/121/1 56/192/1 49/49/1 2/2/1
f 169/198/2 168/197/2 149/160/2 148/159/2
f 166/195/2 167/196/2 189/256/2 190/257/2
f 146/258/1 40/40/1 39/39/1 145/235/1
f 144/240/2 115/115/2 38/38/2 109/238/2
f 191/259/2 188/251/2 187/250/2 177/219/2
f 173/260/6 180/261/6 47/47/6 46/46/6
f 50/50/1 9/262/1 12/223/1 51/51/1
f 184/263/4 183/264/4 55/55/4 54/54/4
f 47/47/2 180/261/2 179/265/2 73/73/2
f 113/113/2 139/266/2 80/80/2 79/79/2
f 179/265/6 181/267/6 95/95/6 73/73/6
f 139/266/4 143/268/4 99/99/4 80/80/4
f 174/269/6 173/260/6 46/46/6 112/112/6
f 82/82/4 184/263/4 54/54/4 79/79/4
f 192/270/2 191/259/2 177/219/2 176/218/2
f 112/222/1 111/231/1 52/52/1 51/51/1
f 166/195/2 190/257/2 187/250/2 186/249/2
f 55/252/1 183/271/1 9/262/1 50/50/1
f 142/187/4 88/88/4 126/272/4 165/273/4
f 88/88/4 87/87/4 123/274/4 126/272/4
f 87/87/4 141/186/4 164/275/4 123/274/4
f 141/144/5 90/90/5 154/276/5 164/277/5
f 90/90/5 89/89/5 155/278/5 154/276/5
f 89/89/5 140/143/5 168/279/5 155/278/5
f 140/143/5 92/92/5 149/280/5 168/279/5
f 92/92/5 91/91/5 150/281/5 149/280/5
f 91/91/5 162/228/5 182/282/5 150/281/5
f 162/188/6 94/94/6 170/283/6 182/284/6
f 94/94/6 93/93/6 171/285/6 170/283/6
f 93/93/6 96/96/6 175/286/6 171/285/6
f 96/96/6 95/95/6 176/287/6 175/286/6
f 95/95/6 181/267/6 192/288/6 176/287/6
f 181/229/3 98/98/3 191/289/3 192/290/3
f 98/98/3 97/97/3 188/291/3 191/289/3
f 97/97/3 100/255/3 185/292/3 188/291/3
f 100/100/4 99/99/4 186/293/4 185/294/4
f 99/99/4 143/268/4 166/295/4 186/293/4
f 143/146/7 102/102/7 157/296/7 166/297/7
f 102/102/7 101/101/7 158/298/7 157/296/7
f 101/101/7 142/145/7 165/299/7 158/298/7
f 29/29/8 32/32/8 125/300/8 124/301/8
f 32/32/5 31/31/5 159/302/5 125/303/5
f 31/31/5 127/127/5 167/304/5 159/302/5
f 127/127/5 6/6/9 189/305/9 167/304/5
f 6/6/10 43/43/10 190/306/10 189/307/10
f 43/43/6 42/42/6 187/308/6 190/306/6
f 42/42/9 41/41/9 177/309/9 187/310/9
f 41/41/4 44/44/4 178/311/4 177/312/4
f 44/44/11 5/5/11 172/313/11 178/311/11
f 5/5/11 8/8/11 147/314/11 172/313/11
f 8/8/3 7/7/3 148/315/3 147/316/3
f 7/7/3 128/128/3 169/317/3 148/315/3
f 128/128/3 30/30/7 156/318/7 169/317/3
f 30/30/7 29/29/7 124/319/7 156/318/7

# 190 faces
