# Wavefront Obj file
# 
# verts: 38 uv-s: 54
mtllib unwrapped_ground_part_1.mtl

g bottom_spawn_floor

v 3707.808838 -1222.674438 1369.673584
v 5271.675781 -1222.674438 1369.673584
v 5271.675781 -1222.674438 2148.710449
v 3707.808838 -1222.674438 2148.710449
v 5271.675781 -1122.674438 2148.710449
v 5271.675781 -1122.674438 1369.673584
v 3707.808838 -1122.674438 1369.673706
v 3707.808838 -1122.674438 2148.710449
v 3707.808838 -1122.674438 582.049927
v 3707.808838 -1222.674438 582.049927
v 8168.815918 -1122.674438 840.426575
v 8168.815918 -1122.674438 1369.673584
v 8168.815918 -1222.674438 1369.673584
v 8168.815918 -1222.674438 840.426575
v 5275.324219 -1222.674438 582.049927
v 6832.279297 -1122.674438 652.330322
v 5275.324219 -1122.674438 582.049927
v 6832.279297 -1122.674438 1369.673584
v 6832.279297 -1122.674438 2148.710449
v 6832.279297 -1222.674438 2148.710449
v 6832.279297 -1222.674438 1369.673584
v 6832.279297 -1222.674438 652.330322
v 6832.279297 -1122.674438 436.155243
v 5275.324219 -1122.674438 436.155243
v 8168.815918 -1122.674438 624.251587
v 8168.815918 -1222.674438 624.251587
v 6832.279297 -1222.674438 436.155243
v 5275.324219 -1222.674438 436.155243
v 8932.689453 -1222.674438 624.251587
v 8932.689453 -1122.674438 624.251587
v 6832.279297 -1122.674438 -719.857849
v 5275.324219 -1122.674438 -719.857849
v 8168.815918 -1122.674438 -719.857849
v 8932.689453 -1122.674438 -719.857849
v 8932.689453 -1222.674438 -719.857849
v 8168.815918 -1222.674438 -719.857849
v 6832.279297 -1222.674438 -719.857849
v 5275.324219 -1222.674438 -719.857849
# 38 positions

vt 0.375123 0.973661
vt 0.371455 0.716472
vt 0.499485 0.715996
vt 0.495103 0.972717
vt 0.527486 0.737850
vt 0.653094 0.737850
vt 0.653093 0.990000
vt 0.527485 0.989999
vt 0.515856 0.716007
vt 0.509802 0.976843
vt 0.374907 0.990000
vt 0.232904 0.977243
vt 0.248075 0.973233
vt 0.286839 0.224643
vt 0.377274 0.238366
vt 0.362539 0.241178
vt 0.283234 0.240876
vt 0.241394 0.717603
vt 0.768755 0.486226
vt 0.780087 0.737262
vt 0.653094 0.486226
vt 0.516680 0.457702
vt 0.501139 0.461308
vt 0.367730 0.460683
vt 0.382131 0.454645
vt 0.527486 0.486226
vt 0.225660 0.716007
vt 0.252210 0.461215
vt 0.780086 0.990000
vt 0.653094 0.270729
vt 0.738427 0.270729
vt 0.803609 0.486227
vt 0.803610 0.737262
vt 0.773282 0.270731
vt 0.247492 0.241521
vt 0.262177 0.239053
vt 0.217358 0.461700
vt 0.217247 0.718323
vt 0.215989 0.734889
vt 0.245728 0.123825
vt 0.250014 0.109124
vt 0.989999 0.486226
vt 0.990000 0.737261
vt 0.989999 0.270730
vt 0.773281 0.147568
vt 0.989999 0.147567
vt 0.027442 0.122930
vt 0.022480 0.108077
vt 0.026294 0.245924
vt 0.028295 0.465304
vt 0.033977 0.717298
vt 0.020391 0.725034
vt 0.010000 0.244863
vt 0.011891 0.465813
# 54 texture coordinates

vn 0.000000 -1.000000 0.000000
vn 0.000000 1.000000 0.000000
vn 0.000000 0.000000 1.000000
vn 0.000000 0.000000 1.000000
vn -1.000000 0.000000 0.000000
vn 1.000000 0.000000 0.000000
vn 0.000000 0.000000 -1.000000
# 7 normals

usemtl wire_028028177
f 1/1/1 2/2/1 3/3/1 4/4/1
f 5/5/2 6/6/2 7/7/2 8/8/2
f 3/3/3 5/9/3 8/10/4 4/4/4
f 1/1/5 7/11/5 9/12/5 10/13/5
f 11/14/6 12/15/6 13/16/6 14/17/6
f 10/13/1 15/18/1 2/2/1 1/1/1
f 16/19/2 17/20/2 6/6/2 18/21/2
f 4/4/5 8/10/5 7/11/5 1/1/5
f 19/22/6 20/23/6 21/24/6 18/25/6
f 21/24/1 20/23/1 3/3/1 2/2/1
f 19/26/2 18/21/2 6/6/2 5/5/2
f 20/23/3 19/22/3 5/9/3 3/3/3
f 10/13/7 9/12/7 17/27/7 15/18/7
f 22/28/1 21/24/1 2/2/1 15/18/1
f 9/29/2 7/7/2 6/6/2 17/20/2
f 21/24/1 22/28/1 14/17/1 13/16/1
f 16/19/2 18/21/2 12/30/2 11/31/2
f 18/25/4 21/24/4 13/16/4 12/15/4
f 16/19/2 23/32/2 24/33/2 17/20/2
f 11/31/2 25/34/2 23/32/2 16/19/2
f 14/17/6 26/35/6 25/36/6 11/14/6
f 22/28/1 27/37/1 26/35/1 14/17/1
f 15/18/1 28/38/1 27/37/1 22/28/1
f 17/27/5 24/39/5 28/38/5 15/18/5
f 25/36/4 26/35/4 29/40/4 30/41/4
f 23/32/2 31/42/2 32/43/2 24/33/2
f 25/34/2 33/44/2 31/42/2 23/32/2
f 30/45/2 34/46/2 33/44/2 25/34/2
f 29/40/6 35/47/6 34/48/6 30/41/6
f 26/35/1 36/49/1 35/47/1 29/40/1
f 27/37/1 37/50/1 36/49/1 26/35/1
f 28/38/1 38/51/1 37/50/1 27/37/1
f 24/39/5 32/52/5 38/51/5 28/38/5
f 36/49/7 33/53/7 34/48/7 35/47/7
f 37/50/7 31/54/7 33/53/7 36/49/7
f 38/51/7 32/52/7 31/54/7 37/50/7

# 36 faces
