# 3ds Max Wavefront OBJ Exporter v0.97b - (c)2007 guruware
# File Created: 11.03.2016 10:44:07

mtllib roof for indoor section.mtl

#
# object roof
#

v  5299.2305 -356.9302 -6606.5234
v  5299.2305 -356.9302 -6985.6997
v  5299.2305 -435.3981 -6985.6997
v  5299.2305 -435.3981 -6606.5234
v  7598.0342 -435.3981 -6985.6997
v  7598.0342 -356.9302 -6985.6997
v  7598.0342 -356.9302 -6606.5229
v  7598.0342 -435.3981 -6606.5229
v  5639.1519 -435.3981 -6985.6997
v  6057.2314 -435.3981 -6985.6997
v  6057.2314 -435.3981 -6606.5229
v  5639.1519 -435.3981 -6606.5234
v  5639.1519 -356.9302 -8226.4180
v  6057.2314 -356.9302 -8226.4180
v  6057.2314 -435.3981 -8226.4180
v  5639.1519 -435.3981 -8226.4180
v  5639.1519 -356.9302 -7652.1533
v  6057.2314 -356.9302 -7652.1538
v  6057.2314 -356.9302 -6606.5229
v  5639.1519 -356.9302 -6606.5234
v  7176.8477 -698.2096 -8226.4180
v  7176.8477 -698.2096 -7653.6636
v  6057.2314 -698.2096 -7653.6636
v  6057.2314 -698.2096 -8226.4180
v  7176.8477 -356.9302 -8226.4180
v  7176.8477 -435.3981 -8226.4180
v  7176.8477 -356.9302 -6606.5229
v  7176.8477 -356.9302 -6985.6997
v  6057.2314 -356.9302 -6985.6997
v  7176.8477 -435.3998 -5496.8286
v  7176.8477 -356.9319 -5496.8281
v  6057.2314 -356.9319 -5496.8281
v  6057.2314 -435.3998 -5496.8281
v  7598.0337 -698.2096 -8226.4180
v  7598.0337 -698.2096 -7653.6636
v  7598.0337 -356.9302 -8226.4180
v  7598.0337 -435.3981 -8226.4180
v  7176.8477 -435.3981 -6606.5229
v  5299.2305 -356.9302 -7252.5122
v  5299.2305 -435.3981 -7252.5122
v  7598.0342 -435.3981 -7252.5122
v  7598.0342 -356.9302 -7252.5122
v  5639.1519 -698.2096 -7252.7725
v  6057.2314 -698.2096 -7252.7725
v  6057.2314 -698.2097 -7224.4160
v  5639.1519 -698.2096 -7224.4160
v  5639.1519 -356.9302 -6985.6997
v  7176.8477 -435.3981 -6985.6997
v  7176.8477 -356.9302 -7252.5122
v  6057.2314 -356.9302 -7252.5122
v  5299.2305 -698.2096 -7252.7725
v  5299.2305 -698.2096 -7224.4160
v  5639.1519 -698.2096 -8226.4180
v  7598.0342 -435.3981 -7652.1538
v  7176.8477 -698.2096 -7224.4160
v  7598.0342 -698.2097 -7224.4160
v  5639.1519 -356.9302 -7252.5122
v  7176.8477 -698.2096 -7252.7725
v  7598.0342 -698.2096 -7252.7725
v  5639.1519 -435.3981 -7652.1533
v  5639.1519 -435.3981 -7252.5122
v  7598.0342 -356.9302 -7652.1538
v  5639.1519 -698.2096 -7653.6636
v  7176.8477 -356.9302 -7652.1533
v  4728.4673 -435.3981 -7652.1533
v  4728.4673 -698.2096 -7653.6636
v  4728.4673 -698.2096 -7252.7725
v  4728.4673 -435.3981 -7252.5122
v  8143.0981 -435.3986 -7652.1538
v  8143.0981 -435.3986 -7252.5127
v  8143.0981 -698.2102 -7252.7729
v  8143.0977 -698.2101 -7653.6641
v  7598.0352 -436.6801 -5957.9902
v  7598.0352 -699.4916 -5958.2505
v  8143.0991 -699.4921 -5958.2510
v  8143.0991 -436.6806 -5957.9907
v  5295.0190 -435.3981 -7652.1533
v  5295.0190 -435.3981 -7252.5122
v  5295.0190 -698.2096 -7653.6636
v  5295.0190 -698.2096 -7252.7725
v  4728.4673 -436.4189 -6221.6567
v  4728.4673 -699.2303 -6221.9170
v  5295.0190 -699.2303 -6221.9170
v  5295.0190 -436.4189 -6221.6567
v  4728.4678 -698.6688 -6789.0195
v  4728.4678 -435.8573 -6788.7588
v  5295.0195 -698.6688 -6789.0195
v  5295.0195 -435.8573 -6788.7593
v  3868.4673 -699.2303 -6221.9175
v  3868.4673 -436.4188 -6221.6572
v  3868.4678 -435.8572 -6788.7598
v  3868.4678 -698.6688 -6789.0200
# 92 vertices

vn -1.0000 0.0000 0.0000
vn 1.0000 -0.0000 -0.0000
vn -0.0000 -1.0000 0.0000
vn 0.0000 0.0000 -1.0000
vn 0.0000 -0.0000 -1.0000
vn 0.0000 1.0000 0.0000
vn 0.0000 1.0000 -0.0000
vn -0.0000 -0.0000 1.0000
vn -0.0000 0.0000 1.0000
vn 0.0000 -1.0000 -0.0000
vn -0.0000 -1.0000 -0.0000
vn -0.0000 1.0000 0.0000
vn -0.0000 1.0000 -0.0000
vn 0.0000 -0.0000 1.0000
vn 0.0000 0.0000 1.0000
vn -0.0000 0.0000 -1.0000
vn 0.0000 -1.0000 0.0000
vn 0.0000 -0.6724 0.7402
vn -0.0000 -0.6724 0.7402
vn 0.0000 -0.0010 1.0000
vn -0.0000 0.0057 -1.0000
vn -0.0000 -1.0000 -0.0010
vn 0.0000 1.0000 0.0010
vn 0.0000 -1.0000 -0.0010
vn -1.0000 0.0000 -0.0000
vn 1.0000 -0.0000 0.0000
vn -0.0000 -0.0010 1.0000
vn 0.0000 0.0010 -1.0000
vn -0.0000 0.0010 -1.0000
# 29 vertex normals

vt 1.0000 1.0000 0.0000
vt 0.5000 1.0000 0.0000
vt 0.5000 0.0000 0.0000
vt 1.0000 0.0000 0.0000
vt 0.0000 1.0000 0.0000
vt 0.0000 0.0000 0.0000
vt 0.5000 0.5000 0.0000
vt 0.0000 0.5000 0.0000
vt 1.0000 0.5000 0.0000
vt 0.1250 0.0000 0.0000
vt 0.1250 0.5000 0.0000
vt 1.0000 0.7500 0.0000
vt 0.8750 0.7500 0.0000
vt 0.8750 0.5000 0.0000
vt 0.0000 0.7500 0.0000
vt 0.5000 0.7500 0.0000
vt 0.8750 1.0000 0.0000
vt 0.2500 1.0000 0.0000
vt 0.2500 0.0000 0.0000
vt 0.7500 0.0000 0.0000
vt 0.7500 1.0000 0.0000
vt 0.7500 0.5000 0.0000
vt 0.2500 0.7500 0.0000
vt 0.2500 0.5000 0.0000
vt 0.7500 0.7500 0.0000
vt 0.1250 1.0000 0.0000
vt 0.8750 0.0000 0.0000
vt 0.1250 0.7500 0.0000
# 28 texture coords

g roof
usemtl wire_006135058
s 2
f 1/1/1 2/2/1 3/3/1 4/4/1 
s 4
f 5/3/2 6/2/2 7/5/2 8/6/2 
s 8
f 9/3/3 10/7/3 11/8/3 12/6/3 
s 16
f 13/4/4 14/9/4 15/8/4 16/6/5 
s 32
f 17/10/6 18/11/6 14/8/6 13/6/7 
s 64
f 12/4/8 11/9/8 19/8/8 20/6/9 
s 8
f 21/12/10 22/13/10 23/14/11 24/9/10 
s 16
f 25/12/4 26/15/4 15/8/4 14/9/4 
s 32
f 27/12/12 28/16/6 29/7/13 19/9/12 
s 64
f 30/12/8 31/15/8 32/8/14 33/9/15 
s 8
f 34/1/10 35/17/10 22/13/10 21/12/10 
s 16
f 36/1/16 37/5/16 26/15/4 25/12/4 
s 32
f 7/1/7 6/2/7 28/16/6 27/12/12 
s 64
f 8/1/8 7/5/8 27/15/14 38/12/14 
s off
f 27/15/12 19/8/12 32/8/12 31/15/12 
f 19/8/1 11/9/1 33/9/1 32/8/1 
f 11/9/11 38/12/11 30/12/11 33/9/11 
f 38/12/2 27/15/2 31/15/2 30/12/2 
s 2
f 39/18/1 40/19/1 3/3/1 2/2/1 
s 4
f 41/20/2 42/21/2 6/2/2 5/3/2 
s 8
f 43/20/11 44/22/11 45/7/10 46/3/3 
s 32
f 20/4/7 19/9/12 29/7/13 47/3/7 
s 8
f 38/15/17 11/8/3 10/7/3 48/16/17 
s 32
f 49/23/6 50/24/13 29/7/13 28/16/6 
s 8
f 8/5/17 38/15/17 48/16/17 5/2/10 
s 32
f 42/18/6 49/23/6 28/16/6 6/2/7 
s off
f 40/20/1 51/20/1 52/3/1 3/3/1 
f 16/4/5 15/9/5 24/9/5 53/4/5 
f 15/9/5 26/12/5 21/12/5 24/9/5 
f 26/12/16 37/1/16 34/1/16 21/12/16 
f 37/1/2 54/17/2 35/17/2 34/1/2 
f 5/2/18 48/16/18 55/16/18 56/2/18 
f 48/16/19 10/7/19 45/7/19 55/16/19 
f 10/7/19 9/3/19 46/3/19 45/7/19 
s 32
f 47/3/7 29/7/13 50/24/13 57/19/7 
s 8
f 55/16/11 45/7/10 44/22/11 58/25/11 
f 56/2/11 55/16/11 58/25/11 59/21/11 
s 2
f 17/26/1 60/10/1 61/19/1 57/18/1 
s 4
f 54/27/2 62/17/2 42/21/2 41/20/2 
s 8
f 63/27/3 23/14/11 44/22/11 43/20/11 
s 32
f 64/28/13 18/11/6 50/24/13 49/23/6 
f 62/26/7 64/28/13 49/23/6 42/18/6 
s off
f 65/27/1 66/27/1 67/20/1 68/20/1 
f 41/21/2 5/2/2 56/2/2 59/21/2 
s 32
f 57/19/7 50/24/13 18/11/6 17/10/6 
s 8
f 58/25/11 44/22/11 23/14/11 22/13/10 
f 59/21/11 58/25/11 22/13/10 35/17/10 
s off
f 69/17/2 70/21/2 71/21/2 72/17/2 
s 2
f 13/5/1 16/6/1 60/10/1 17/26/1 
s 4
f 37/4/2 36/1/2 62/17/2 54/27/2 
s 8
f 53/4/11 24/9/10 23/14/11 63/27/3 
s 32
f 25/15/13 14/8/6 18/11/6 64/28/13 
f 36/5/7 25/15/13 64/28/13 62/26/7 
s off
f 16/4/1 53/4/1 63/27/1 60/27/1 
f 73/21/20 74/21/20 75/21/20 76/21/20 
f 59/21/11 35/17/11 72/17/11 71/21/11 
f 35/17/21 54/17/21 69/17/21 72/17/21 
f 54/17/7 41/21/7 70/21/7 69/17/7 
f 41/21/1 59/21/1 74/21/1 73/21/1 
f 59/21/22 71/21/22 75/21/22 74/21/22 
f 71/21/2 70/21/2 76/21/2 75/21/2 
f 70/21/23 41/21/23 73/21/23 76/21/23 
f 60/27/7 77/27/7 78/20/7 61/20/7 
f 63/27/21 79/27/21 77/27/21 60/27/21 
f 43/20/3 80/20/3 79/27/3 63/27/3 
f 61/20/20 78/20/20 80/20/20 43/20/20 
f 65/27/7 68/20/7 78/20/7 77/27/7 
f 66/27/21 65/27/21 77/27/21 79/27/21 
f 67/20/10 66/27/10 79/27/10 80/20/10 
f 81/20/20 82/20/20 83/20/20 84/20/20 
f 67/20/1 85/20/1 86/20/1 68/20/1 
f 80/20/24 87/20/24 85/20/24 67/20/24 
f 78/20/2 88/20/2 87/20/2 80/20/2 
f 68/20/23 86/20/23 88/20/23 78/20/23 
f 89/20/25 90/20/25 91/20/25 92/20/25 
f 83/20/24 82/20/24 85/20/24 87/20/24 
f 84/20/26 83/20/26 87/20/26 88/20/26 
f 81/20/23 84/20/23 88/20/23 86/20/23 
f 82/20/27 81/20/27 90/20/27 89/20/27 
f 81/20/23 86/20/23 91/20/23 90/20/23 
f 86/20/28 85/20/28 92/20/28 91/20/28 
f 85/20/22 82/20/22 89/20/22 92/20/22 
f 12/4/15 20/1/15 1/1/15 4/4/15 
f 20/1/7 47/2/7 2/2/7 1/1/7 
f 47/2/7 57/18/7 39/18/7 2/2/7 
f 57/18/16 61/19/16 40/19/16 39/18/16 
f 61/20/29 43/20/29 51/20/29 40/20/29 
f 43/20/3 46/3/3 52/3/3 51/20/3 
f 46/3/18 9/3/18 3/3/18 52/3/18 
f 9/3/3 12/4/3 4/4/3 3/3/3 
# 90 polygons

