# 3ds Max Wavefront OBJ Exporter v0.97b - (c)2007 guruware
# File Created: 01.03.2016 19:50:50

mtllib unwrapped_guard_room_floor_low_poly.mtl

#
# object Box003
#

v  267.6074 -13.8250 -12.9199
v  267.6079 -13.8250 12.9189
v  -267.6089 -13.8250 12.9189
v  -267.6094 -13.8250 -12.9199
v  -267.6089 0.4832 -12.9199
v  -267.6094 0.4832 12.9189
v  267.6074 0.4832 12.9189
v  267.6079 0.4832 -12.9199
v  267.6079 -13.8250 471.2705
v  267.6074 0.4832 471.2705
v  -267.6094 0.4832 471.2705
v  -267.6089 -13.8250 471.2705
v  809.8184 -13.8250 -12.9199
v  809.8184 0.4832 -12.9199
v  809.8184 0.4832 12.9189
v  809.8184 -13.8250 12.9189
v  -267.6094 -13.8250 -471.2695
v  -267.6089 0.4832 -471.2695
v  267.6079 0.4832 -471.2695
v  267.6074 -13.8250 -471.2695
v  -809.8188 -13.8250 12.9189
v  -809.8188 0.4832 12.9189
v  -809.8188 0.4832 -12.9199
v  -809.8188 -13.8250 -12.9199
v  267.6074 -13.8250 -449.1309
v  -267.6094 -13.8250 -449.1309
v  -267.6089 -13.8250 449.1309
v  267.6079 -13.8250 449.1309
v  -267.6089 0.4832 -449.1309
v  267.6079 0.4832 -449.1309
v  -254.8682 13.8251 -436.3887
v  -254.8682 13.8251 -25.6611
v  254.8662 13.8251 -25.6611
v  254.8662 13.8251 -436.3887
v  267.6074 0.4832 449.1309
v  -267.6094 0.4832 449.1309
v  254.8662 13.8251 436.3896
v  254.8662 13.8251 25.6611
v  -254.8682 13.8251 25.6611
v  -254.8682 13.8251 436.3896
v  809.8184 -13.8250 -471.2695
v  809.8184 0.4832 -471.2695
v  809.8184 0.4832 -449.1309
v  809.8184 -13.8250 -449.1309
v  809.8184 0.4832 471.2705
v  809.8184 -13.8250 471.2705
v  809.8184 -13.8250 449.1309
v  809.8184 0.4832 449.1309
v  -809.8188 -13.8250 471.2705
v  -809.8188 0.4832 471.2705
v  -809.8188 0.4832 449.1309
v  -809.8188 -13.8250 449.1309
v  -809.8188 0.4832 -471.2695
v  -809.8188 -13.8250 -471.2695
v  -809.8188 -13.8250 -449.1309
v  -809.8188 0.4832 -449.1309
v  783.7803 -13.8250 12.9189
v  783.7803 -13.8250 -12.9199
v  281.7642 -13.8250 12.9189
v  281.7642 -13.8250 -12.9199
v  -783.7813 -13.8250 -12.9199
v  -783.7813 -13.8250 12.9189
v  -281.7651 -13.8250 -12.9199
v  -281.7651 -13.8250 12.9189
v  -783.7813 0.4832 12.9189
v  -783.7813 0.4832 -12.9199
v  -281.7651 0.4832 12.9189
v  -281.7651 0.4832 -12.9199
v  783.7803 0.4832 -12.9199
v  783.7803 0.4832 12.9189
v  281.7642 0.4832 -12.9199
v  281.7642 0.4832 12.9189
v  783.7803 0.4832 471.2705
v  783.7803 -13.8250 471.2705
v  281.7642 0.4832 471.2705
v  281.7642 -13.8250 471.2705
v  -783.7813 -13.8250 471.2705
v  -783.7813 0.4832 471.2705
v  -281.7651 -13.8250 471.2705
v  -281.7651 0.4832 471.2705
v  -783.7813 0.4832 -471.2695
v  -783.7813 -13.8250 -471.2695
v  -281.7651 0.4832 -471.2695
v  -281.7651 -13.8250 -471.2695
v  783.7803 -13.8250 -471.2695
v  783.7803 0.4832 -471.2695
v  281.7642 -13.8250 -471.2695
v  281.7642 0.4832 -471.2695
v  783.7803 -13.8250 -449.1309
v  281.7642 -13.8250 -449.1309
v  -783.7813 -13.8250 -449.1309
v  -281.7651 -13.8250 -449.1309
v  -783.7813 -13.8250 449.1309
v  -281.7651 -13.8250 449.1309
v  783.7803 -13.8250 449.1309
v  281.7642 -13.8250 449.1309
v  -783.7813 0.4832 -449.1309
v  -281.7651 0.4832 -449.1309
v  783.7803 0.4832 -449.1309
v  281.7642 0.4832 -449.1309
v  -771.0396 13.8251 -436.3887
v  -771.0396 13.8251 -25.6611
v  -294.5068 13.8251 -25.6611
v  -294.5068 13.8251 -436.3887
v  771.0391 13.8251 -25.6611
v  771.0391 13.8251 -436.3887
v  294.5059 13.8251 -436.3887
v  294.5059 13.8251 -25.6611
v  783.7803 0.4832 449.1309
v  281.7642 0.4832 449.1309
v  -783.7813 0.4832 449.1309
v  -281.7651 0.4832 449.1309
v  771.0386 13.8251 436.3896
v  771.0386 13.8251 25.6611
v  294.5059 13.8251 25.6611
v  294.5059 13.8251 436.3896
v  -771.0405 13.8251 25.6611
v  -771.0405 13.8251 436.3896
v  -294.5068 13.8251 436.3896
v  -294.5068 13.8251 25.6611
v  -267.6089 8.9323 -449.1309
v  267.6079 8.9323 -449.1309
v  -267.6089 8.9323 -12.9199
v  267.6079 8.9323 -12.9199
v  267.6074 8.9323 449.1309
v  -267.6094 8.9323 449.1309
v  267.6074 8.9323 12.9189
v  -267.6094 8.9323 12.9189
v  -783.7813 8.9323 -449.1309
v  -281.7651 8.9323 -449.1309
v  -783.7813 8.9323 -12.9199
v  -281.7651 8.9323 -12.9199
v  281.7642 8.9323 -449.1309
v  783.7803 8.9323 -449.1309
v  281.7642 8.9323 -12.9199
v  783.7803 8.9323 -12.9199
v  783.7803 8.9323 449.1309
v  281.7642 8.9323 449.1309
v  783.7803 8.9323 12.9189
v  281.7642 8.9323 12.9189
v  -281.7651 8.9323 449.1309
v  -783.7813 8.9323 449.1309
v  -281.7651 8.9323 12.9189
v  -783.7813 8.9323 12.9189
# 144 vertices

vn 0.0000 -1.0000 -0.0000
vn 0.0000 1.0000 -0.0000
vn 0.0000 0.0000 1.0000
vn 1.0000 0.0000 -0.0000
vn 0.0000 0.0000 -1.0000
vn -1.0000 0.0000 -0.0000
vn 0.0000 0.9335 -0.3585
vn -0.3585 0.9335 -0.0000
vn 0.0000 0.9335 0.3585
vn 0.3585 0.9335 -0.0000
# 10 vertex normals

vt 0.4503 0.7889 0.0000
vt 0.4503 0.7994 0.0000
vt 0.2345 0.7994 0.0000
vt 0.2345 0.7889 0.0000
vt 0.4493 0.3863 0.0000
vt 0.4491 0.3967 0.0000
vt 0.2329 0.3992 0.0000
vt 0.2330 0.3887 0.0000
vt 0.4503 0.9842 0.0000
vt 0.4503 0.9900 0.0000
vt 0.2345 0.9900 0.0000
vt 0.2345 0.9842 0.0000
vt 0.6690 0.7889 0.0000
vt 0.6748 0.7889 0.0000
vt 0.6748 0.7994 0.0000
vt 0.6690 0.7994 0.0000
vt 0.2345 0.6041 0.0000
vt 0.2345 0.5983 0.0000
vt 0.4503 0.5983 0.0000
vt 0.4503 0.6041 0.0000
vt 0.0158 0.7994 0.0000
vt 0.0100 0.7994 0.0000
vt 0.0100 0.7889 0.0000
vt 0.0158 0.7889 0.0000
vt 0.4503 0.6130 0.0000
vt 0.2345 0.6130 0.0000
vt 0.2345 0.9753 0.0000
vt 0.4503 0.9753 0.0000
vt 0.4572 0.2013 0.0000
vt 0.4570 0.2102 0.0000
vt 0.2386 0.2125 0.0000
vt 0.2387 0.2035 0.0000
vt 0.9463 0.5772 0.0000
vt 0.9472 0.7428 0.0000
vt 0.7416 0.7440 0.0000
vt 0.7407 0.5783 0.0000
vt 0.2276 0.5842 0.0000
vt 0.2274 0.5753 0.0000
vt 0.4412 0.5725 0.0000
vt 0.4413 0.5815 0.0000
vt 0.7355 0.9509 0.0000
vt 0.7371 0.7853 0.0000
vt 0.9426 0.7872 0.0000
vt 0.9411 0.9529 0.0000
vt 0.6690 0.6041 0.0000
vt 0.6748 0.6041 0.0000
vt 0.6748 0.6130 0.0000
vt 0.6690 0.6130 0.0000
vt 0.6748 0.9842 0.0000
vt 0.6690 0.9842 0.0000
vt 0.6690 0.9753 0.0000
vt 0.6748 0.9753 0.0000
vt 0.0158 0.9842 0.0000
vt 0.0100 0.9842 0.0000
vt 0.0100 0.9753 0.0000
vt 0.0158 0.9753 0.0000
vt 0.0100 0.6041 0.0000
vt 0.0158 0.6041 0.0000
vt 0.0158 0.6130 0.0000
vt 0.0100 0.6130 0.0000
vt 0.6585 0.7994 0.0000
vt 0.6585 0.7889 0.0000
vt 0.4560 0.7994 0.0000
vt 0.4560 0.7889 0.0000
vt 0.0263 0.7889 0.0000
vt 0.0263 0.7994 0.0000
vt 0.2288 0.7889 0.0000
vt 0.2288 0.7994 0.0000
vt 0.6681 0.3956 0.0000
vt 0.6678 0.4059 0.0000
vt 0.6574 0.4050 0.0000
vt 0.6578 0.3947 0.0000
vt 0.4548 0.3969 0.0000
vt 0.4550 0.3865 0.0000
vt 0.0137 0.4055 0.0000
vt 0.0138 0.3950 0.0000
vt 0.0244 0.3950 0.0000
vt 0.0243 0.4054 0.0000
vt 0.2272 0.3887 0.0000
vt 0.2271 0.3992 0.0000
vt 0.6690 0.9900 0.0000
vt 0.6585 0.9900 0.0000
vt 0.6585 0.9842 0.0000
vt 0.4560 0.9900 0.0000
vt 0.4560 0.9842 0.0000
vt 0.0158 0.9900 0.0000
vt 0.0263 0.9842 0.0000
vt 0.0263 0.9900 0.0000
vt 0.2288 0.9842 0.0000
vt 0.2288 0.9900 0.0000
vt 0.0158 0.5983 0.0000
vt 0.0263 0.5983 0.0000
vt 0.0263 0.6041 0.0000
vt 0.2288 0.5983 0.0000
vt 0.2288 0.6041 0.0000
vt 0.6690 0.5983 0.0000
vt 0.6585 0.6041 0.0000
vt 0.6585 0.5983 0.0000
vt 0.4560 0.6041 0.0000
vt 0.4560 0.5983 0.0000
vt 0.6585 0.6130 0.0000
vt 0.4560 0.6130 0.0000
vt 0.0263 0.6130 0.0000
vt 0.2288 0.6130 0.0000
vt 0.0263 0.9753 0.0000
vt 0.2288 0.9753 0.0000
vt 0.6585 0.9753 0.0000
vt 0.4560 0.9753 0.0000
vt 0.6778 0.2111 0.0000
vt 0.6772 0.2200 0.0000
vt 0.6668 0.2192 0.0000
vt 0.6673 0.2103 0.0000
vt 0.4628 0.2104 0.0000
vt 0.4631 0.2015 0.0000
vt 0.0182 0.2188 0.0000
vt 0.0182 0.2099 0.0000
vt 0.0287 0.2099 0.0000
vt 0.0288 0.2188 0.0000
vt 0.2328 0.2036 0.0000
vt 0.2329 0.2125 0.0000
vt 0.9443 0.3571 0.0000
vt 0.9439 0.5227 0.0000
vt 0.7517 0.5222 0.0000
vt 0.7521 0.3566 0.0000
vt 0.0189 0.1867 0.0000
vt 0.0189 0.0211 0.0000
vt 0.2111 0.0211 0.0000
vt 0.2111 0.1867 0.0000
vt 0.0102 0.5907 0.0000
vt 0.0100 0.5817 0.0000
vt 0.0205 0.5816 0.0000
vt 0.0207 0.5905 0.0000
vt 0.2217 0.5753 0.0000
vt 0.2220 0.5842 0.0000
vt 0.6580 0.5818 0.0000
vt 0.6577 0.5906 0.0000
vt 0.6474 0.5898 0.0000
vt 0.6476 0.5809 0.0000
vt 0.4468 0.5817 0.0000
vt 0.4469 0.5728 0.0000
vt 0.2381 0.1846 0.0000
vt 0.2381 0.0189 0.0000
vt 0.4303 0.0189 0.0000
vt 0.4303 0.1846 0.0000
vt 0.6495 0.0189 0.0000
vt 0.6495 0.1846 0.0000
vt 0.4573 0.1846 0.0000
vt 0.4573 0.0189 0.0000
vt 0.7355 0.5695 0.0000
vt 0.9513 0.5682 0.0000
vt 0.9514 0.5716 0.0000
vt 0.7355 0.5729 0.0000
vt 0.9551 0.5720 0.0000
vt 0.9561 0.7479 0.0000
vt 0.9527 0.7479 0.0000
vt 0.9517 0.5720 0.0000
vt 0.9524 0.7517 0.0000
vt 0.7365 0.7529 0.0000
vt 0.7365 0.7495 0.0000
vt 0.9524 0.7483 0.0000
vt 0.7327 0.7492 0.0000
vt 0.7317 0.5732 0.0000
vt 0.7351 0.5732 0.0000
vt 0.7361 0.7492 0.0000
vt 0.9461 0.9618 0.0000
vt 0.7303 0.9598 0.0000
vt 0.7303 0.9564 0.0000
vt 0.9462 0.9584 0.0000
vt 0.7265 0.9560 0.0000
vt 0.7282 0.7800 0.0000
vt 0.7316 0.7801 0.0000
vt 0.7299 0.9560 0.0000
vt 0.7320 0.7763 0.0000
vt 0.9479 0.7784 0.0000
vt 0.9478 0.7818 0.0000
vt 0.7320 0.7797 0.0000
vt 0.9516 0.7822 0.0000
vt 0.9499 0.9581 0.0000
vt 0.9465 0.9581 0.0000
vt 0.9482 0.7821 0.0000
vt 0.7470 0.3477 0.0000
vt 0.9495 0.3482 0.0000
vt 0.9495 0.3516 0.0000
vt 0.7470 0.3511 0.0000
vt 0.9532 0.3519 0.0000
vt 0.9528 0.5279 0.0000
vt 0.9494 0.5279 0.0000
vt 0.9498 0.3519 0.0000
vt 0.9490 0.5316 0.0000
vt 0.7465 0.5311 0.0000
vt 0.7466 0.5277 0.0000
vt 0.9490 0.5282 0.0000
vt 0.7428 0.5274 0.0000
vt 0.7432 0.3514 0.0000
vt 0.7466 0.3514 0.0000
vt 0.7462 0.5274 0.0000
vt 0.0138 0.0122 0.0000
vt 0.2163 0.0122 0.0000
vt 0.2163 0.0156 0.0000
vt 0.0138 0.0156 0.0000
vt 0.2200 0.0159 0.0000
vt 0.2200 0.1919 0.0000
vt 0.2166 0.1919 0.0000
vt 0.2166 0.0159 0.0000
vt 0.2163 0.1957 0.0000
vt 0.0138 0.1957 0.0000
vt 0.0138 0.1922 0.0000
vt 0.2163 0.1922 0.0000
vt 0.0100 0.1919 0.0000
vt 0.0100 0.0159 0.0000
vt 0.0134 0.0159 0.0000
vt 0.0134 0.1919 0.0000
vt 0.4355 0.1935 0.0000
vt 0.2330 0.1935 0.0000
vt 0.2330 0.1901 0.0000
vt 0.4355 0.1901 0.0000
vt 0.2292 0.1897 0.0000
vt 0.2292 0.0138 0.0000
vt 0.2326 0.0138 0.0000
vt 0.2326 0.1897 0.0000
vt 0.2330 0.0100 0.0000
vt 0.4355 0.0100 0.0000
vt 0.4355 0.0134 0.0000
vt 0.2330 0.0134 0.0000
vt 0.4392 0.0138 0.0000
vt 0.4392 0.1897 0.0000
vt 0.4358 0.1897 0.0000
vt 0.4358 0.0138 0.0000
vt 0.6547 0.1935 0.0000
vt 0.4522 0.1935 0.0000
vt 0.4522 0.1901 0.0000
vt 0.6547 0.1901 0.0000
vt 0.4484 0.1897 0.0000
vt 0.4484 0.0138 0.0000
vt 0.4518 0.0138 0.0000
vt 0.4518 0.1897 0.0000
vt 0.4522 0.0100 0.0000
vt 0.6547 0.0100 0.0000
vt 0.6547 0.0134 0.0000
vt 0.4522 0.0134 0.0000
vt 0.6584 0.0138 0.0000
vt 0.6584 0.1897 0.0000
vt 0.6550 0.1897 0.0000
vt 0.6550 0.0138 0.0000
# 244 texture coords

g Box003
usemtl wire_115115115
s 1
f 1/1/1 2/2/1 3/3/1 4/4/1 
f 5/5/2 6/6/2 7/7/2 8/8/2 
f 9/9/3 10/10/3 11/11/3 12/12/3 
f 13/13/4 14/14/4 15/15/4 16/16/4 
f 17/17/5 18/18/5 19/19/5 20/20/5 
f 21/21/6 22/22/6 23/23/6 24/24/6 
f 20/20/1 25/25/1 26/26/1 17/17/1 
f 25/25/1 1/1/1 4/4/1 26/26/1 
f 12/12/1 27/27/1 28/28/1 9/9/1 
f 27/27/1 3/3/1 2/2/1 28/28/1 
f 18/29/2 29/30/2 30/31/2 19/32/2 
f 31/33/2 32/34/2 33/35/2 34/36/2 
f 10/37/2 35/38/2 36/39/2 11/40/2 
f 37/41/2 38/42/2 39/43/2 40/44/2 
f 41/45/4 42/46/4 43/47/4 44/48/4 
f 44/48/4 43/47/4 14/14/4 13/13/4 
f 45/49/4 46/50/4 47/51/4 48/52/4 
f 48/52/4 47/51/4 16/16/4 15/15/4 
f 49/53/6 50/54/6 51/55/6 52/56/6 
f 52/56/6 51/55/6 22/22/6 21/21/6 
f 53/57/6 54/58/6 55/59/6 56/60/6 
f 56/60/6 55/59/6 24/24/6 23/23/6 
f 13/13/1 16/16/1 57/61/1 58/62/1 
f 58/62/1 57/61/1 59/63/1 60/64/1 
f 60/64/1 59/63/1 2/2/1 1/1/1 
f 21/21/1 24/24/1 61/65/1 62/66/1 
f 62/66/1 61/65/1 63/67/1 64/68/1 
f 64/68/1 63/67/1 4/4/1 3/3/1 
f 23/69/2 22/70/2 65/71/2 66/72/2 
f 66/72/2 65/71/2 67/73/2 68/74/2 
f 68/74/2 67/73/2 6/6/2 5/5/2 
f 15/75/2 14/76/2 69/77/2 70/78/2 
f 70/78/2 69/77/2 71/79/2 72/80/2 
f 72/80/2 71/79/2 8/8/2 7/7/2 
f 46/50/3 45/81/3 73/82/3 74/83/3 
f 74/83/3 73/82/3 75/84/3 76/85/3 
f 76/85/3 75/84/3 10/10/3 9/9/3 
f 50/86/3 49/53/3 77/87/3 78/88/3 
f 78/88/3 77/87/3 79/89/3 80/90/3 
f 80/90/3 79/89/3 12/12/3 11/11/3 
f 54/58/5 53/91/5 81/92/5 82/93/5 
f 82/93/5 81/92/5 83/94/5 84/95/5 
f 84/95/5 83/94/5 18/18/5 17/17/5 
f 42/96/5 41/45/5 85/97/5 86/98/5 
f 86/98/5 85/97/5 87/99/5 88/100/5 
f 88/100/5 87/99/5 20/20/5 19/19/5 
f 41/45/1 44/48/1 89/101/1 85/97/1 
f 85/97/1 89/101/1 90/102/1 87/99/1 
f 87/99/1 90/102/1 25/25/1 20/20/1 
f 55/59/1 54/58/1 82/93/1 91/103/1 
f 91/103/1 82/93/1 84/95/1 92/104/1 
f 92/104/1 84/95/1 17/17/1 26/26/1 
f 44/48/1 13/13/1 58/62/1 89/101/1 
f 89/101/1 58/62/1 60/64/1 90/102/1 
f 90/102/1 60/64/1 1/1/1 25/25/1 
f 24/24/1 55/59/1 91/103/1 61/65/1 
f 61/65/1 91/103/1 92/104/1 63/67/1 
f 63/67/1 92/104/1 26/26/1 4/4/1 
f 49/53/1 52/56/1 93/105/1 77/87/1 
f 77/87/1 93/105/1 94/106/1 79/89/1 
f 79/89/1 94/106/1 27/27/1 12/12/1 
f 47/51/1 46/50/1 74/83/1 95/107/1 
f 95/107/1 74/83/1 76/85/1 96/108/1 
f 96/108/1 76/85/1 9/9/1 28/28/1 
f 52/56/1 21/21/1 62/66/1 93/105/1 
f 93/105/1 62/66/1 64/68/1 94/106/1 
f 94/106/1 64/68/1 3/3/1 27/27/1 
f 16/16/1 47/51/1 95/107/1 57/61/1 
f 57/61/1 95/107/1 96/108/1 59/63/1 
f 59/63/1 96/108/1 28/28/1 2/2/1 
f 53/109/2 56/110/2 97/111/2 81/112/2 
f 81/112/2 97/111/2 98/113/2 83/114/2 
f 83/114/2 98/113/2 29/30/2 18/29/2 
f 43/115/2 42/116/2 86/117/2 99/118/2 
f 99/118/2 86/117/2 88/119/2 100/120/2 
f 100/120/2 88/119/2 19/32/2 30/31/2 
f 56/110/2 23/69/2 66/72/2 97/111/2 
f 101/121/2 102/122/2 103/123/2 104/124/2 
f 98/113/2 68/74/2 5/5/2 29/30/2 
f 14/76/2 43/115/2 99/118/2 69/77/2 
f 105/125/2 106/126/2 107/127/2 108/128/2 
f 71/79/2 100/120/2 30/31/2 8/8/2 
f 45/129/2 48/130/2 109/131/2 73/132/2 
f 73/132/2 109/131/2 110/133/2 75/134/2 
f 75/134/2 110/133/2 35/38/2 10/37/2 
f 51/135/2 50/136/2 78/137/2 111/138/2 
f 111/138/2 78/137/2 80/139/2 112/140/2 
f 112/140/2 80/139/2 11/40/2 36/39/2 
f 48/130/2 15/75/2 70/78/2 109/131/2 
f 113/141/2 114/142/2 115/143/2 116/144/2 
f 110/133/2 72/80/2 7/7/2 35/38/2 
f 22/70/2 51/135/2 111/138/2 65/71/2 
f 117/145/2 118/146/2 119/147/2 120/148/2 
f 67/73/2 112/140/2 36/39/2 6/6/2 
f 30/149/5 29/150/5 121/151/5 122/152/5 
f 29/153/6 5/154/6 123/155/6 121/156/6 
f 5/157/3 8/158/3 124/159/3 123/160/3 
f 8/161/4 30/162/4 122/163/4 124/164/4 
f 36/165/3 35/166/3 125/167/3 126/168/3 
f 35/169/4 7/170/4 127/171/4 125/172/4 
f 7/173/5 6/174/5 128/175/5 127/176/5 
f 6/177/6 36/178/6 126/179/6 128/180/6 
f 98/181/5 97/182/5 129/183/5 130/184/5 
f 97/185/6 66/186/6 131/187/6 129/188/6 
f 66/189/3 68/190/3 132/191/3 131/192/3 
f 68/193/4 98/194/4 130/195/4 132/196/4 
f 99/197/5 100/198/5 133/199/5 134/200/5 
f 100/201/6 71/202/6 135/203/6 133/204/6 
f 71/205/3 69/206/3 136/207/3 135/208/3 
f 69/209/4 99/210/4 134/211/4 136/212/4 
f 110/213/3 109/214/3 137/215/3 138/216/3 
f 109/217/4 70/218/4 139/219/4 137/220/4 
f 70/221/5 72/222/5 140/223/5 139/224/5 
f 72/225/6 110/226/6 138/227/6 140/228/6 
f 111/229/3 112/230/3 141/231/3 142/232/3 
f 112/233/4 67/234/4 143/235/4 141/236/4 
f 67/237/5 65/238/5 144/239/5 143/240/5 
f 65/241/6 111/242/6 142/243/6 144/244/6 
f 122/152/7 121/151/7 31/33/7 34/36/7 
f 121/156/8 123/155/8 32/34/8 31/33/8 
f 123/160/9 124/159/9 33/35/9 32/34/9 
f 124/164/10 122/163/10 34/36/10 33/35/10 
f 126/168/9 125/167/9 37/41/9 40/44/9 
f 125/172/10 127/171/10 38/42/10 37/41/10 
f 127/176/7 128/175/7 39/43/7 38/42/7 
f 128/180/8 126/179/8 40/44/8 39/43/8 
f 130/184/7 129/183/7 101/121/7 104/124/7 
f 129/188/8 131/187/8 102/122/8 101/121/8 
f 131/192/9 132/191/9 103/123/9 102/122/9 
f 132/196/10 130/195/10 104/124/10 103/123/10 
f 134/200/7 133/199/7 107/127/7 106/126/7 
f 133/204/8 135/203/8 108/128/8 107/127/8 
f 135/208/9 136/207/9 105/125/9 108/128/9 
f 136/212/10 134/211/10 106/126/10 105/125/10 
f 138/216/9 137/215/9 113/141/9 116/144/9 
f 137/220/10 139/219/10 114/142/10 113/141/10 
f 139/224/7 140/223/7 115/143/7 114/142/7 
f 140/228/8 138/227/8 116/144/8 115/143/8 
f 142/232/9 141/231/9 119/147/9 118/146/9 
f 141/236/10 143/235/10 120/148/10 119/147/10 
f 143/240/7 144/239/7 117/145/7 120/148/7 
f 144/244/8 142/243/8 118/146/8 117/145/8 
# 142 polygons

